<svg width="53" height="53" viewBox="0 0 53 53" fill="none" xmlns="http://www.w3.org/2000/svg">
<path fill-rule="evenodd" clip-rule="evenodd" d="M26.838 52.215C41.2546 52.215 52.9455 40.5241 52.9455 26.1075C52.9455 11.6909 41.2546 0 26.838 0C12.4214 0 0.730469 11.6909 0.730469 26.1075C0.730469 40.5241 12.4214 52.215 26.838 52.215Z" fill="#DFD9D9"/>
<path fill-rule="evenodd" clip-rule="evenodd" d="M26.8509 13.6672H27.0318C31.0106 13.7835 34.2013 17.5943 34.2013 22.2836C34.2013 26.9729 31.0106 30.7966 27.0318 30.9H26.838C22.3038 30.9 19.4876 26.4432 19.4876 22.2707C19.4876 17.5814 22.6784 13.7576 26.6572 13.6543H26.8509V13.6672ZM10.8066 46.35C10.8066 46.35 16.1935 35.7184 20.0948 33.9099C23.2855 32.4372 30.4292 32.4372 33.6071 33.9099C37.5084 35.7055 42.8952 46.35 42.8952 46.35C37.5859 50.6776 30.8943 51.8144 27.7423 52.1115V52.2149C27.7423 52.2149 27.4193 52.2149 26.8509 52.1761C26.2825 52.2149 25.9596 52.2149 25.9596 52.2149V52.1115C22.8076 51.8144 16.116 50.6776 10.8066 46.35Z" fill="#A63A50"/>
</svg>
