<svg xmlns="http://www.w3.org/2000/svg" id="camera" width="64" height="64" viewBox="3.391 3.969 29.218 28.062">
  <path d="M146.719 250.969c-1.928 0-3.496 1.279-4.125 3-.545-.403-1.174-.719-1.906-.719-1.84 0-3.344 1.528-3.344 3.375 0 .939.376 1.768 1 2.375-.974-.002-1.427.003-2.688 0a2.506 2.506 0 0 0-2.5 2.5l.094 15c.009 1.371 1.123 2.5 2.5 2.5l17 .031c1.376 0 2.487-1.128 2.5-2.5v-3.156l6.344 3.562c.303.176.753-.087.75-.437l.03-15a.522.522 0 0 0-.562-.5.538.538 0 0 0-.187.062l-6.344 3.688v-3.219a2.504 2.504 0 0 0-2.5-2.5h-.156c-1.486-.003-2.12.002-3.219 0 1.075-.823 1.781-2.103 1.781-3.562 0-2.478-2-4.5-4.468-4.5zm-3.313 7.344c.221.259.455.475.719.687h-1.281a3.97 3.97 0 0 0 .562-.688zm1.156 4.687a.515.515 0 0 1 .032 0 .509.509 0 0 1 .062 0 .502.502 0 0 1 .094 0 .5.5 0 0 1 .094 0h7a.5.5 0 1 1 0 1h-7a.52.52 0 0 1-.282-1zm-6.843 10h8c.822 0 1.5.678 1.5 1.5s-.678 1.5-1.5 1.5h-8c-.823 0-1.5-.678-1.5-1.5s.677-1.5 1.5-1.5zm0 1c-.286 0-.5.214-.5.5 0 .286.214.5.5.5h8c.285 0 .5-.214.5-.5 0-.286-.215-.5-.5-.5h-8z" color="#000" font-family="Sans" font-weight="400" overflow="visible" style="text-indent:0;text-align:start;line-height:normal;text-transform:none;block-progression:tb;marker:none;-inkscape-font-specification:Sans" transform="translate(-129.765 -247)"></path>
</svg>
