<svg width="184" height="184" viewBox="0 0 184 184" fill="none" xmlns="http://www.w3.org/2000/svg">
<g clip-path="url(#clip0_88_362)">
<path d="M111.287 24.1018C111.287 30.4651 107.99 32.2668 92.12 48.0218C75.8283 31.7685 76.135 32.1135 75.905 31.7685C74.4263 30.1153 73.4573 28.0697 73.1146 25.8783C72.772 23.6869 73.0704 21.4432 73.9738 19.4176C74.8773 17.3919 76.3472 15.6707 78.2066 14.4614C80.0659 13.2521 82.2353 12.6063 84.4533 12.6018C87.2798 12.6362 90.0002 13.6835 92.12 15.5535C94.238 13.6806 96.9595 12.6328 99.7867 12.6018C102.837 12.6018 105.762 13.8134 107.918 15.9701C110.075 18.1267 111.287 21.0518 111.287 24.1018Z" fill="#F6FBFC"/>
<path d="M111.286 24.1018C111.286 30.2352 107.951 32.1902 97.4478 42.7318C84.4528 29.6602 80.6194 27.4752 80.6194 21.1502C80.608 19.5337 80.9443 17.9338 81.6058 16.4588C82.2672 14.9838 83.2381 13.6684 84.4528 12.6018C87.2887 12.5861 90.0263 13.64 92.1194 15.5535C94.241 13.6865 96.9602 12.6396 99.7861 12.6018C102.836 12.6018 105.761 13.8134 107.918 15.9701C110.074 18.1268 111.286 21.0518 111.286 24.1018Z" fill="#F6FBFC"/>
<path d="M170.358 127.602C167.943 125.187 168.556 125.685 164.34 96.1685C163.279 88.8231 159.554 82.1243 153.875 77.3468C154.744 74.5734 154.76 71.6025 153.919 68.8202C153.078 66.0379 151.42 63.5728 149.16 61.7452L136.701 51.7785C136.022 51.2342 135.177 50.9376 134.306 50.9376C133.435 50.9376 132.59 51.2342 131.91 51.7785L119.413 61.7452C117.153 63.5728 115.495 66.0379 114.654 68.8202C113.813 71.6025 113.829 74.5734 114.698 77.3468C103.581 86.8152 104.271 95.7852 100.361 123.347C99.7481 127.717 96.9115 127.602 92.6948 134.847C86.8681 123.769 77.9748 122.044 65.2865 117.29V110.198C67.6926 108.046 69.6188 105.412 70.9397 102.466C72.2606 99.5207 72.9466 96.33 72.9531 93.1018V54.7685C72.9712 53.8717 72.6742 52.997 72.1139 52.2965C71.5536 51.5961 70.7654 51.1144 69.8865 50.9352L50.7198 47.1018C49.6081 46.8718 50.7198 46.7952 30.0198 50.9352C29.1409 51.1144 28.3527 51.5961 27.7923 52.2965C27.232 52.997 26.935 53.8717 26.9531 54.7685C26.9531 91.9135 24.4998 101.113 34.6198 110.198V117.29L21.3565 122.235C16.2553 124.179 11.8622 127.621 8.75573 132.11C5.64921 136.599 3.97486 141.923 3.95312 147.382V188.935C3.95313 189.952 4.35699 190.927 5.07588 191.646C5.79477 192.365 6.76979 192.769 7.78646 192.769C8.80312 192.769 9.77814 192.365 10.497 191.646C11.2159 190.927 11.6198 189.952 11.6198 188.935V147.382C11.6227 143.479 12.8172 139.67 15.0435 136.464C17.2698 133.258 20.4219 130.808 24.0781 129.442L37.4948 124.382C39.711 127.32 42.6958 129.588 46.1198 130.937V165.935C46.1198 166.952 46.5237 167.927 47.2425 168.646C47.9614 169.365 48.9365 169.769 49.9531 169.769C50.9698 169.769 51.9448 169.365 52.6637 168.646C53.3826 167.927 53.7865 166.952 53.7865 165.935V130.937C57.6198 129.749 58.7698 128.024 62.4115 124.382L75.8665 129.442C79.5155 130.814 82.6594 133.267 84.8785 136.472C87.0976 139.677 88.2865 143.483 88.2865 147.382V188.935C88.2865 189.952 88.6903 190.927 89.4092 191.646C90.1281 192.365 91.1031 192.769 92.1198 192.769C93.1365 192.769 94.1115 192.365 94.8304 191.646C95.5493 190.927 95.9531 189.952 95.9531 188.935V151.522C95.9443 148.082 96.6172 144.675 97.9332 141.497C99.2491 138.319 101.182 135.433 103.62 133.007C108.296 128.33 107.721 126.03 111.823 97.2418C112.599 91.8369 115.297 86.8927 119.423 83.3164C123.549 79.74 128.826 77.7712 134.286 77.7712C139.747 77.7712 145.024 79.74 149.15 83.3164C153.276 86.8927 155.974 91.8369 156.75 97.2418C160.583 125.57 160.161 128.254 164.953 133.007C167.391 135.433 169.324 138.319 170.64 141.497C171.956 144.675 172.629 148.082 172.62 151.522V188.935C172.62 189.952 173.024 190.927 173.743 191.646C174.461 192.365 175.436 192.769 176.453 192.769C177.47 192.769 178.445 192.365 179.164 191.646C179.883 190.927 180.286 189.952 180.286 188.935V151.522C180.297 147.076 179.425 142.672 177.721 138.566C176.017 134.46 173.514 130.733 170.358 127.602ZM65.2865 93.1018C65.2865 97.1685 63.671 101.069 60.7954 103.944C57.9199 106.82 54.0198 108.435 49.9531 108.435C45.8865 108.435 41.9864 106.82 39.1108 103.944C36.2353 101.069 34.6198 97.1685 34.6198 93.1018V77.7685H65.2865V93.1018ZM34.6198 57.9118L49.9531 54.8452L65.2865 57.9118V70.1018H34.6198V57.9118ZM49.9531 116.102C58.9998 116.102 57.6198 112.039 57.6198 118.364C53.2881 122.695 52.7898 123.769 50.3365 123.769C46.5031 123.385 47.1931 123.155 42.2865 118.287C42.2865 112.269 41.0981 116.102 49.9531 116.102ZM121.751 72.8618C121.751 68.6452 123.898 67.9935 134.286 59.6752C143.87 67.3418 146.668 68.4535 146.821 72.8618C142.892 71.0447 138.615 70.1035 134.286 70.1035C129.958 70.1035 125.68 71.0447 121.751 72.8618Z" fill="#35B8BE"/>
<path d="M134.286 85.4352C129.203 85.4352 124.328 87.4545 120.733 91.0489C117.139 94.6434 115.119 99.5185 115.119 104.602C115.119 114.952 114.544 106.557 118.953 150.985C119.048 151.934 119.494 152.813 120.203 153.451C120.911 154.089 121.833 154.44 122.786 154.435H145.786C146.74 154.44 147.661 154.089 148.37 153.451C149.079 152.813 149.524 151.934 149.619 150.985C153.913 107.975 153.453 115.067 153.453 104.602C153.453 99.5185 151.433 94.6434 147.839 91.0489C144.245 87.4545 139.369 85.4352 134.286 85.4352ZM122.786 104.602C122.786 101.552 123.998 98.6268 126.154 96.4701C128.311 94.3134 131.236 93.1018 134.286 93.1018C137.336 93.1018 140.261 94.3134 142.418 96.4701C144.575 98.6268 145.786 101.552 145.786 104.602V108.435H122.786V104.602ZM142.298 146.768H126.274L123.208 116.102H145.364L142.298 146.768ZM72.9528 154.435V188.935C72.9528 189.952 73.3567 190.927 74.0756 191.646C74.7944 192.365 75.7695 192.768 76.7861 192.768C77.8028 192.768 78.7778 192.365 79.4967 191.646C80.2156 190.927 80.6195 189.952 80.6195 188.935V154.435C80.6195 153.418 80.2156 152.443 79.4967 151.725C78.7778 151.006 77.8028 150.602 76.7861 150.602C75.7695 150.602 74.7944 151.006 74.0756 151.725C73.3567 152.443 72.9528 153.418 72.9528 154.435ZM19.2861 154.435V188.935C19.2861 189.952 19.69 190.927 20.4089 191.646C21.1278 192.365 22.1028 192.768 23.1195 192.768C24.1361 192.768 25.1112 192.365 25.83 191.646C26.5489 190.927 26.9528 189.952 26.9528 188.935V154.435C26.9528 153.418 26.5489 152.443 25.83 151.725C25.1112 151.006 24.1361 150.602 23.1195 150.602C22.1028 150.602 21.1278 151.006 20.4089 151.725C19.69 152.443 19.2861 153.418 19.2861 154.435ZM73.6045 34.9502C90.9695 52.2768 89.9728 51.8552 92.1195 51.8552C94.2661 51.8552 93.4611 52.0852 110.634 34.9502C123.131 22.4152 107.453 1.83016 92.1195 10.8385C76.7861 1.83016 61.1078 22.4152 73.6045 34.9502ZM89.5128 18.3902C90.2438 19.0015 91.1665 19.3364 92.1195 19.3364C93.0724 19.3364 93.9951 19.0015 94.7261 18.3902C95.8306 17.4198 97.1907 16.7875 98.6444 16.5686C100.098 16.3496 101.584 16.5532 102.925 17.1552C104.267 17.7571 105.407 18.732 106.209 19.9636C107.012 21.1953 107.444 22.6317 107.453 24.1018C107.453 28.3185 105.689 29.0468 92.1195 42.6168C79.7378 30.3118 76.7861 28.5868 76.7861 24.1018C76.7953 22.6317 77.227 21.1953 78.0297 19.9636C78.8324 18.732 79.9723 17.7571 81.3135 17.1552C82.6548 16.5532 84.1408 16.3496 85.5945 16.5686C87.0483 16.7875 88.4084 17.4198 89.5128 18.3902Z" fill="#35B8BE"/>
</g>
<defs>
<clipPath id="clip0_88_362">
<rect width="184" height="184" fill="white"/>
</clipPath>
</defs>
</svg>
