<svg width="103" height="103" viewBox="0 0 103 103" fill="none" xmlns="http://www.w3.org/2000/svg">
<mask id="mask0_88_438" style="mask-type:luminance" maskUnits="userSpaceOnUse" x="0" y="0" width="103" height="103">
<path d="M103 0H0V103H103V0Z" fill="white"/>
</mask>
<g mask="url(#mask0_88_438)">
<mask id="mask1_88_438" style="mask-type:luminance" maskUnits="userSpaceOnUse" x="0" y="0" width="103" height="103">
<path d="M0 0H103V103H0V0Z" fill="white"/>
</mask>
<g mask="url(#mask1_88_438)">
<path d="M64.8797 65.1304C77.5694 60.8197 85.7756 47.9305 83.7537 34.1903C81.4764 18.7147 67.0828 8.01821 51.6054 10.2998C36.1281 12.5813 25.4267 26.977 27.704 42.4527C29.7259 56.1929 41.2963 66.1668 54.6889 66.6326L55.5065 72.1892L50.4111 72.9403C47.5927 73.3558 45.6507 75.9682 46.0654 78.7863C46.4801 81.6044 49.0921 83.5455 51.9105 83.13L57.0059 82.3789L57.7557 87.4738C58.1703 90.2919 60.7824 92.233 63.6008 91.8175C66.4192 91.402 68.3612 88.7896 67.9465 85.9715L67.1968 80.8767L72.2922 80.1255C75.1106 79.7101 77.0526 77.0976 76.638 74.2795C76.2233 71.4615 73.6112 69.5204 70.7928 69.9358L65.6974 70.6869L64.8797 65.1304ZM73.5628 35.6925C75.0131 45.5479 68.2093 54.7005 58.3528 56.1535C48.4964 57.6064 39.3451 50.8058 37.8948 40.9504C36.4446 31.095 43.2484 21.9424 53.1048 20.4895C62.9613 19.0365 72.1126 25.8372 73.5628 35.6925Z" fill="#35B8BE"/>
</g>
</g>
</svg>
