<?xml version="1.0" encoding="UTF-8"?>
<svg version="1.1" xmlns="http://www.w3.org/2000/svg" width="690" height="395">
<path d="M0 0 C15.94964231 4.809245 32.08894766 8.73495251 48.28814697 12.60412598 C56.15787657 14.48597144 64.01981825 16.39333761 71.85620117 18.41012573 C72.61444687 18.60085159 73.37269257 18.79157745 74.15391541 18.98808289 C84.7818305 21.7618448 95.48156806 26.09107288 101.49291992 35.79293823 C105.49633876 43.71807349 104.40862912 54.73489045 102.05541992 63.10543823 C88.64908984 100.79058602 62.24808252 136.73852829 35.19213867 165.87496948 C32.69816252 168.57106237 30.24666373 171.29916507 27.80541992 174.04293823 C21.45102764 181.10965562 14.77930693 187.6913296 7.49291992 193.79293823 C6.50420898 194.63211792 5.51549805 195.47129761 4.49682617 196.33590698 C-42.82943247 235.76877061 -102.50650738 261.32282156 -164.50708008 262.79293823 C-165.31822266 262.8134021 -166.12936523 262.83386597 -166.96508789 262.85494995 C-178.10619782 263.09819685 -189.14889392 262.82659221 -200.25708008 261.91793823 C-201.2199292 261.83954712 -202.18277832 261.76115601 -203.17480469 261.6803894 C-209.70148769 261.09034603 -216.07743951 260.04611902 -222.50708008 258.79293823 C-221.19617967 246.90538783 -219.55294153 235.10121739 -217.68676758 223.28903198 C-217.42030259 221.5870139 -217.15412375 219.884951 -216.88821411 218.18284607 C-216.19731041 213.76523813 -215.50259781 209.34823794 -214.80700684 204.93136597 C-214.09398865 200.39926586 -213.38468944 195.86658382 -212.67504883 191.33395386 C-211.28930293 182.48638507 -209.89952027 173.63945576 -208.50708008 164.79293823 C-207.922314 164.85025116 -207.33754791 164.90756409 -206.73506165 164.96661377 C-204.03032383 165.23072717 -201.32534687 165.49231222 -198.62036133 165.75387573 C-197.24128601 165.88910645 -197.24128601 165.88910645 -195.83435059 166.02706909 C-187.40217795 166.83931708 -178.96673503 167.37161859 -170.50708008 167.79293823 C-171.00208008 165.31793823 -171.00208008 165.31793823 -171.50708008 162.79293823 C-172.30887695 162.81614136 -173.11067383 162.83934448 -173.93676758 162.86325073 C-181.09119851 162.97681313 -188.02664799 162.65843453 -195.13208008 161.85543823 C-195.90148926 161.76858765 -196.67089844 161.68173706 -197.46362305 161.59225464 C-200.88154556 161.18325307 -204.1814126 160.67440156 -207.50708008 159.79293823 C-204.44343833 139.18437645 -201.34522186 118.58117697 -198.15994263 97.99102783 C-197.84986073 95.98500191 -197.54067598 93.9788371 -197.23239136 91.97253418 C-196.79923483 89.15574491 -196.3626426 86.33950987 -195.92504883 83.52340698 C-195.79612244 82.68143768 -195.66719604 81.83946838 -195.53436279 80.97198486 C-195.03960783 77.80898993 -194.52151167 74.83623301 -193.50708008 71.79293823 C-192.86383789 71.86512573 -192.2205957 71.93731323 -191.55786133 72.01168823 C-182.84486608 72.90660358 -174.17755958 73.22412446 -165.44067383 72.46090698 C-149.3443217 71.05909999 -149.3443217 71.05909999 -142.58911133 76.27340698 C-138.33559659 80.23670323 -135.50158694 84.85259901 -132.50708008 89.79293823 C-132.83301147 88.86227539 -132.83301147 88.86227539 -133.16552734 87.91281128 C-134.14292732 85.1051845 -135.10638491 82.29296811 -136.06958008 79.48043823 C-136.41182617 78.50397339 -136.75407227 77.52750854 -137.10668945 76.52145386 C-137.58525391 75.1147644 -137.58525391 75.1147644 -138.07348633 73.67965698 C-138.37198486 72.81558228 -138.6704834 71.95150757 -138.97802734 71.06124878 C-139.50708008 68.79293823 -139.50708008 68.79293823 -138.50708008 65.79293823 C-136.08465 64.44913016 -133.70536116 63.25897849 -131.19458008 62.10543823 C-123.81466339 58.58486591 -117.17818246 54.54357175 -110.50708008 49.79293823 C-106.93504094 51.23941035 -105.39406289 52.96246402 -103.27270508 56.14450073 C-102.69907227 56.99528198 -102.12543945 57.84606323 -101.53442383 58.72262573 C-100.94790039 59.61207886 -100.36137695 60.50153198 -99.75708008 61.41793823 C-99.15508789 62.31512573 -98.5530957 63.21231323 -97.93286133 64.13668823 C-96.44938096 66.35013513 -94.97457081 68.56887168 -93.50708008 70.79293823 C-93.85641602 69.98211792 -94.20575195 69.17129761 -94.56567383 68.33590698 C-98.11132054 59.70783185 -101.34070582 51.35378233 -98.31958008 42.10543823 C-95.80855562 36.60716054 -92.05604924 32.00261358 -88.36157227 27.26144409 C-83.83947226 21.41161061 -79.97731942 15.28811485 -76.24902344 8.90817261 C-72.72670521 2.92991986 -69.33295065 -2.68957004 -63.00708008 -6.01956177 C-62.27489258 -6.41788208 -61.54270508 -6.81620239 -60.78833008 -7.22659302 C-42.24397106 -15.19685691 -17.85827066 -5.39883967 0 0 Z M-46.50708008 46.79293823 C-46.50708008 47.78293823 -46.50708008 48.77293823 -46.50708008 49.79293823 C-45.10199971 51.22966103 -45.10199971 51.22966103 -43.16723633 52.50778198 C-42.07862305 53.28182373 -42.07862305 53.28182373 -40.96801758 54.07150269 C-40.1765332 54.61895142 -39.38504883 55.16640015 -38.56958008 55.73043823 C-37.36495117 56.57964844 -37.36495117 56.57964844 -36.13598633 57.4460144 C-34.45006997 58.63356466 -32.76136055 59.81715832 -31.07006836 60.99703979 C-28.56549876 62.75200398 -26.07887796 64.529609 -23.59692383 66.31637573 C-22.06713948 67.41295812 -20.53719784 68.50932113 -19.00708008 69.60543823 C-18.28399658 70.12678345 -17.56091309 70.64812866 -16.81591797 71.18527222 C-13.48800757 73.85002385 -13.48800757 73.85002385 -9.50708008 74.79293823 C-9.01208008 73.30793823 -9.01208008 73.30793823 -8.50708008 71.79293823 C-9.58602539 71.07750854 -10.6649707 70.36207886 -11.77661133 69.62496948 C-21.09846569 63.43209247 -30.37433382 57.18021678 -39.57470703 50.80783081 C-40.3374292 50.28213501 -41.10015137 49.75643921 -41.88598633 49.21481323 C-42.56218018 48.74656128 -43.23837402 48.27830933 -43.93505859 47.79586792 C-45.33680297 46.70329667 -45.33680297 46.70329667 -46.50708008 46.79293823 Z M-92.50708008 71.79293823 C-91.50708008 73.79293823 -91.50708008 73.79293823 -91.50708008 73.79293823 Z M-80.50708008 88.79293823 C-80.17708008 89.78293823 -79.84708008 90.77293823 -79.50708008 91.79293823 C-79.50708008 90.80293823 -79.50708008 89.81293823 -79.50708008 88.79293823 C-79.83708008 88.79293823 -80.16708008 88.79293823 -80.50708008 88.79293823 Z M-131.50708008 92.79293823 C-130.50708008 94.79293823 -130.50708008 94.79293823 -130.50708008 94.79293823 Z M-77.50708008 92.79293823 C-75.85619636 98.0842322 -72.51795039 102.15134108 -69.25708008 106.54293823 C-64.84467814 112.52757534 -60.57814628 118.56986428 -56.50708008 124.79293823 C-55.51708008 123.80293823 -54.52708008 122.81293823 -53.50708008 121.79293823 C-64.68350587 107.02877158 -64.68350587 107.02877158 -76.50708008 92.79293823 C-76.83708008 92.79293823 -77.16708008 92.79293823 -77.50708008 92.79293823 Z M-130.50708008 95.79293823 C-129.50708008 97.79293823 -129.50708008 97.79293823 -129.50708008 97.79293823 Z M-125.50708008 110.79293823 C-124.50708008 112.79293823 -124.50708008 112.79293823 -124.50708008 112.79293823 Z M-124.50708008 113.79293823 C-123.50708008 116.79293823 -123.50708008 116.79293823 -123.50708008 116.79293823 Z M-123.50708008 116.79293823 C-122.50708008 119.79293823 -122.50708008 119.79293823 -122.50708008 119.79293823 Z M-122.50708008 120.79293823 C-121.50708008 123.79293823 -121.50708008 123.79293823 -121.50708008 123.79293823 Z M-121.50708008 123.79293823 C-120.87467724 131.06111729 -118.9673184 137.79947067 -116.94458008 144.79293823 C-116.61522461 145.94922729 -116.28586914 147.10551636 -115.9465332 148.29684448 C-115.13861343 151.13041817 -114.32534065 153.96233681 -113.50708008 156.79293823 C-112.02208008 156.29793823 -112.02208008 156.29793823 -110.50708008 155.79293823 C-113.17951822 144.92502314 -116.91351859 134.38192676 -120.50708008 123.79293823 C-120.83708008 123.79293823 -121.16708008 123.79293823 -121.50708008 123.79293823 Z " fill="#FFB548" transform="translate(511.507080078125,42.207061767578125)"/>
<path d="M0 0 C0.58105469 2.21769206 1.16210938 4.43538411 1.74316406 6.65307617 C1.9154163 7.31011882 2.08766853 7.96716146 2.26514053 8.64411449 C2.97650785 11.35791518 3.68741736 14.07181922 4.39343262 16.78701782 C6.35196924 24.31790175 8.45072923 31.6877782 11.27441406 38.94995117 C12 41 12 41 12 43 C-5.91697551 51.11207457 -23.91236748 59.02448851 -41.97335815 66.81011963 C-42.7646109 67.15121765 -43.55586365 67.49231567 -44.37109375 67.84375 C-45.16581085 68.18629822 -45.96052795 68.52884644 -46.77932739 68.8817749 C-55.50929189 72.64694011 -64.22392448 76.44709585 -72.9375 80.25 C-76.15748888 81.65509281 -79.37753823 83.06004693 -82.59765625 84.46484375 C-83.8279808 85.00158974 -83.8279808 85.00158974 -85.0831604 85.54917908 C-91.84355936 88.49759134 -98.60691375 91.43917999 -105.37109375 94.37890625 C-106.41347702 94.83194122 -107.45586029 95.2849762 -108.52983093 95.7517395 C-113.63154224 97.96884147 -118.73350042 100.18537383 -123.83569336 102.40136719 C-125.70036174 103.2115801 -127.56502663 104.02180106 -129.4296875 104.83203125 C-130.26555893 105.1948671 -131.10143036 105.55770294 -131.96263123 105.93153381 C-132.75855179 106.27744064 -133.55447235 106.62334747 -134.37451172 106.97973633 C-135.13842224 107.31075348 -135.90233276 107.64177063 -136.68939209 107.9828186 C-138.29568213 108.68994348 -139.89510047 109.41280162 -141.48883057 110.14779663 C-142.28802917 110.5149881 -143.08722778 110.88217957 -143.91064453 111.26049805 C-144.62479523 111.59413864 -145.33894592 111.92777924 -146.07473755 112.27153015 C-148 113 -148 113 -151 113 C-150.67 114.65 -150.34 116.3 -150 118 C-140.77891704 114.64149094 -131.93786169 110.75533922 -123.09088135 106.52871704 C-120.1138032 105.10650215 -117.13171631 103.69492796 -114.14996338 102.282547 C-112.62704944 101.56105813 -111.10438436 100.83904373 -109.58197021 100.11650085 C-102.61380183 96.81050761 -95.62354514 93.55374212 -88.625 90.3125 C-87.49441162 89.78849609 -86.36382324 89.26449219 -85.19897461 88.72460938 C-82.93388457 87.67501657 -80.66866736 86.62569814 -78.40332031 85.57666016 C-72.60040466 82.88833668 -66.80037156 80.19380703 -61 77.5 C-58.66667998 76.41663799 -56.33334666 75.33330463 -54 74.25 C-52.845 73.71375 -51.69 73.1775 -50.5 72.625 C-47 71 -43.5 69.375 -40 67.75 C-38.84306641 67.2127832 -37.68613281 66.67556641 -36.49414062 66.12207031 C-34.18055198 65.04804272 -31.86675274 63.97446862 -29.55273438 62.90136719 C-24.0760067 60.36092011 -18.6015786 57.81582508 -13.13452148 55.25463867 C-10.54722141 54.04288947 -7.95871875 52.83372178 -5.37011719 51.62475586 C-3.53983492 50.76863296 -1.71130287 49.90877149 0.1171875 49.04882812 C1.22320312 48.53255859 2.32921875 48.01628906 3.46875 47.484375 C4.44263672 47.02772461 5.41652344 46.57107422 6.41992188 46.10058594 C8.6250136 45.15995824 10.66023272 44.48756662 13 44 C13.53367188 44.99257813 14.06734375 45.98515625 14.6171875 47.0078125 C19.80707817 56.51966794 25.56026191 65.29600617 32 74 C32.99 75.485 32.99 75.485 34 77 C28.14351868 82.87976574 22.28425612 88.7567404 16.42153168 94.63028049 C13.6986213 97.35838474 10.9766386 100.08740073 8.25683594 102.81860352 C5.62659073 105.45980293 2.99383075 108.09847235 0.35939026 110.73548698 C-0.63968295 111.73639205 -1.63788345 112.7381691 -2.63514709 113.74087715 C-7.7369402 118.86938379 -12.86131193 123.9008782 -18.36610413 128.5978241 C-20.64927414 130.55719374 -22.80123428 132.63250639 -24.9375 134.75 C-25.68902344 135.48734375 -26.44054687 136.2246875 -27.21484375 136.984375 C-29.20753109 138.96883069 -29.20753109 138.96883069 -30 142 C-23.50723646 136.55688595 -17.5006527 130.65501767 -11.52709961 124.6574707 C-9.94040054 123.06541034 -8.34842258 121.4787701 -6.75585938 119.89257812 C-0.48759009 113.63700201 -0.48759009 113.63700201 5.4375 107.05859375 C10.58152583 101.04177457 16.32311846 95.57234704 21.9375 90 C23.11026009 88.83226626 24.28278798 87.66429926 25.45507812 86.49609375 C28.30071689 83.66136766 31.14947453 80.82981176 34 78 C37.33589053 79.57270199 39.31085153 81.2088775 41.8125 83.9375 C47.86741149 90.17527795 54.91966607 95.00925079 62 100 C54.52367655 115.96393702 46.85045537 131.81448341 38.5625 147.375 C31.23163367 161.15178911 24.36746686 175.17420025 17.41569519 189.14472961 C15.55988094 192.87390805 13.69995878 196.60085708 11.82714844 200.3215332 C8.37763903 207.17905945 5.00912165 214.05652041 1.79223633 221.02734375 C-4.30291172 234.164213 -10.54525986 246.67213097 -23.375 254.4375 C-34.09977817 256.73566675 -42.22837492 253.39660478 -51.375 247.9375 C-57.19412374 244.08517507 -62.21216049 239.49410192 -67.23388672 234.68066406 C-69.21325536 232.7970625 -71.21631797 230.94077769 -73.22265625 229.0859375 C-80.28439246 222.53514597 -87.19402488 216.06381051 -93.3359375 208.625 C-94.97008006 206.65067022 -94.97008006 206.65067022 -98 207 C-100.03694425 208.70240941 -100.03694425 208.70240941 -102.08984375 210.97265625 C-102.87423828 211.78927734 -103.65863281 212.60589844 -104.46679688 213.44726562 C-106.11404442 215.1908739 -107.75728173 216.93827953 -109.39648438 218.68945312 C-110.18216797 219.50478516 -110.96785156 220.32011719 -111.77734375 221.16015625 C-112.49140381 221.91949463 -113.20546387 222.67883301 -113.94116211 223.46118164 C-116 225 -116 225 -118.11767578 224.89794922 C-121.20568498 223.42483666 -122.93649801 220.7408598 -124.9375 218.0625 C-125.6493042 217.12966187 -125.6493042 217.12966187 -126.37548828 216.17797852 C-127.9299138 214.12804516 -129.46573041 212.06505166 -131 210 C-131.51804199 209.31131836 -132.03608398 208.62263672 -132.56982422 207.91308594 C-166.30985417 162.96108059 -213.35177144 85.22234991 -208 26 C-206.6469171 20.0672519 -204.61723933 14.13121414 -200 10 C-187.48080375 2.40383288 -174.77744755 1.85118003 -160.4765625 2 C-146.96553344 2.06720053 -133.46862017 1.85686479 -119.9609375 1.5625 C-118.93298317 1.54043488 -117.90502884 1.51836975 -116.84592438 1.49563599 C-107.22004589 1.28874575 -97.59436627 1.07321024 -87.96875 0.85449219 C-81.61207962 0.71066941 -75.25532072 0.57158884 -68.8984375 0.4375 C-67.34778217 0.40477997 -67.34778217 0.40477997 -65.76580048 0.37139893 C-43.84351145 -0.0803472 -21.92593101 -0.10740209 0 0 Z " fill="#FFB548" transform="translate(223,1)"/>
<path d="M0 0 C0.66 0 1.32 0 2 0 C2.91915827 2.72834655 3.83550869 5.45758737 4.75 8.1875 C5.05728027 9.10313721 5.36456055 10.01877441 5.68115234 10.9621582 C7.7318864 17.10498052 9.72613049 23.26328408 11.6796875 29.4375 C21.61876128 60.77456776 32.98757607 91.24333018 47 121 C47.68328369 122.45937988 47.68328369 122.45937988 48.38037109 123.94824219 C82.22658532 195.65058865 135.93592306 258.67698289 212 286 C222.64791419 289.74242866 233.45301887 292.46181779 244.5 294.75 C245.92119141 295.04837769 245.92119141 295.04837769 247.37109375 295.3527832 C264.1925394 298.64227899 281.15330205 299.38134703 298.25 299.3125 C299.19955566 299.31067719 300.14911133 299.30885437 301.12744141 299.30697632 C355.12051396 299.13393605 409.21793553 288.63102916 458 265 C458.80663086 264.61908203 459.61326172 264.23816406 460.44433594 263.84570312 C480.46674067 254.38914891 498.74407958 242.85908569 516 229 C517.01449219 228.19820312 518.02898438 227.39640625 519.07421875 226.5703125 C534.0893505 214.53250359 548.11736083 201.14934409 560 186 C560.88157781 184.90785637 561.76444681 183.81675404 562.6484375 182.7265625 C579.30198289 162.05937173 591.75775557 138.93906583 604.12158203 115.54833984 C605.8920163 112.19968468 607.67851047 108.8597333 609.46484375 105.51953125 C617.56688571 90.26939935 624.84445271 74.7211121 631.33178711 58.71386719 C631.7675708 57.64168945 632.20335449 56.56951172 632.65234375 55.46484375 C633.04156006 54.49281006 633.43077637 53.52077637 633.83178711 52.51928711 C636.01302304 47.81538458 639.16825717 44.93938467 644 43 C655.19919509 41.77308181 664.68944795 43.52854535 673.75 50.3125 C675.18431834 51.52102225 676.60182665 52.74983744 678 54 C678.97646484 54.83724609 678.97646484 54.83724609 679.97265625 55.69140625 C687.87580258 62.92337243 690.00058788 71.7373014 690.5 82.1875 C690.7257894 111.79977939 674.49498255 148.1358305 662.10546875 174.62304688 C661.07155565 176.84614271 660.07675086 179.08215468 659.09375 181.328125 C646.82629334 208.95759058 629.44193767 234.36709871 609.12109375 256.66015625 C607.19213665 258.78804815 605.30963647 260.94720859 603.4375 263.125 C597.46651798 269.96273748 590.95851257 276.17872007 584 282 C583.51241211 282.4120166 583.02482422 282.8240332 582.52246094 283.24853516 C566.38654096 296.80833562 548.73413948 308.35780751 530 318 C528.98921387 318.52086182 528.98921387 318.52086182 527.95800781 319.05224609 C445.40244089 360.97092672 341.040522 357.8547853 239 329 C225.61549729 324.56406644 212.71222017 319.08768472 200 313 C199.22720703 312.63068359 198.45441406 312.26136719 197.65820312 311.88085938 C178.5134906 302.59315262 160.41145822 290.52807124 144 277 C143.20215088 276.35224609 143.20215088 276.35224609 142.38818359 275.69140625 C133.48610714 268.42356471 125.26696029 260.47206278 117.125 252.375 C116.39558197 251.65348251 116.39558197 251.65348251 115.65142822 250.91738892 C108.97169177 244.29370047 102.82662267 237.3882688 97 230 C96.38930664 229.23800293 95.77861328 228.47600586 95.14941406 227.69091797 C49.01646471 169.99235273 0 76.41773112 0 0 Z " fill="#FF6E1E" transform="translate(0,45)"/>
<path d="M0 0 C4.37393532 1.38298409 8.50285404 3.06228237 12.6875 4.9375 C18.01895279 7.30078062 23.28222321 9.03720702 28.98828125 10.26171875 C29.65214844 10.50535156 30.31601562 10.74898437 31 11 C32.15040856 14.45122567 31.83057447 16.0462314 31.20480347 19.59877014 C31.00305008 20.76539688 30.80129669 21.93202362 30.59342957 23.13400269 C30.36392105 24.41630768 30.13441254 25.69861267 29.89794922 27.01977539 C29.65925993 28.38364037 29.42123418 29.74762162 29.18382263 31.11170959 C28.66971618 34.05730507 28.15096137 37.00203114 27.62865829 39.94618416 C26.79639906 44.63812249 25.97488609 49.33190396 25.15481567 54.02598572 C23.70019945 62.3442006 22.23665128 70.66082513 20.77105713 78.97711182 C18.58571235 91.37754591 16.4066679 103.77908091 14.23693669 116.18225664 C13.42725795 120.80876995 12.61279739 125.43440524 11.79436934 130.05937833 C11.15189229 133.69524866 10.5144874 137.33199808 9.87841797 140.96899414 C9.75505373 141.67202829 9.63168949 142.37506243 9.50458694 143.09940064 C8.1032512 151.11492918 6.8091133 159.13475784 5.69146729 167.19503784 C5.58487592 167.95572592 5.47828456 168.71641401 5.36846316 169.50015324 C4.86315203 173.11782116 4.37282873 176.73623254 3.91204643 180.35984135 C2.18863241 192.97681136 -0.48591981 209.18214855 -11.01953125 217.6171875 C-19.09019578 222.91777237 -27.23524293 222.91543353 -36.640625 221.421875 C-47.23663329 219.06243996 -56.75650945 214.83697669 -66.52490234 210.17578125 C-68.93041804 209.03305452 -71.34693357 207.91847943 -73.76953125 206.8125 C-80.79613104 203.5889025 -87.59078476 200.36372102 -94 196 C-92.4896563 191.03598426 -90.43139958 186.53705894 -88.140625 181.90234375 C-87.75991852 181.12429886 -87.37921204 180.34625397 -86.98696899 179.54463196 C-85.7446385 177.00727604 -84.49725828 174.4724367 -83.25 171.9375 C-81.94377078 169.27192431 -80.63891056 166.60568119 -79.33407593 163.93942261 C-78.45969474 162.15301543 -77.58487717 160.36682178 -76.70962524 158.58084106 C-73.06915156 151.15101263 -69.46406773 143.70478944 -65.875 136.25 C-60.83042907 125.78290213 -55.76579218 115.32576992 -50.6875 104.875 C-50.33170868 104.14279236 -49.97591736 103.41058472 -49.60934448 102.65618896 C-47.79903634 98.93083778 -45.98845881 95.20561761 -44.17773438 91.48046875 C-38.83726745 80.49347724 -33.50001587 69.50492297 -28.16410828 58.51571655 C-26.39131096 54.8647303 -24.61815039 51.21392131 -22.84423828 47.56347656 C-15.15676836 31.74324088 -7.47356112 15.92283717 0 0 Z " fill="#FFB548" transform="translate(285,102)"/>
<path d="M0 0 C6.41615579 5.39540373 13.96282771 13.10945692 17 21 C17.1953125 23.5078125 17.1953125 23.5078125 17.125 26.125 C17.10695313 26.99382813 17.08890625 27.86265625 17.0703125 28.7578125 C17.04710937 29.49773438 17.02390625 30.23765625 17 31 C17 31.66 17 32.32 17 33 C20.63 27.06 24.26 21.12 28 15 C30.289375 16.2375 32.57875 17.475 34.9375 18.75 C42.3320419 22.59382804 49.60524262 24.6829216 57.74609375 26.30859375 C61 27 61 27 62 28 C62.37468378 30.95046829 62.69247699 33.88779058 62.97265625 36.84765625 C63.06002548 37.7340831 63.14739471 38.62050995 63.2374115 39.53379822 C63.5166086 42.37630913 63.78961575 45.21937677 64.0625 48.0625 C64.25024488 49.98506575 64.43839061 51.9075924 64.62695312 53.83007812 C65.08929502 58.55294359 65.54608487 63.27631749 66 68 C66.66 68 67.32 68 68 68 C68 64.96947448 67.51471648 62.02018917 67.125 59.015625 C66.94256049 57.59116476 66.76027372 56.16668495 66.578125 54.7421875 C66.29006749 52.49945402 66.00089617 50.25688369 65.70898438 48.01464844 C65.42759663 45.84872847 65.15096857 43.68224122 64.875 41.515625 C64.70742188 40.21915039 64.53984375 38.92267578 64.3671875 37.58691406 C64.03652499 34.35679865 63.92990244 31.24326378 64 28 C64.87140625 27.85304687 65.7428125 27.70609375 66.640625 27.5546875 C79.29555947 25.17161543 89.0845083 19.65101645 100 13 C104.68647878 10.20613765 106.71524305 9.72019741 112 11 C122.67638451 16.06675875 134.08655883 23.17346947 142 32 C144.1676261 38.63835494 141.98393837 44.00928699 139 50 C124.21527382 74.72921463 100.63271822 91.42100914 73 99 C72.34 99 71.68 99 71 99 C70.67 98.34 70.34 97.68 70 97 C69.34 97.99 68.68 98.98 68 100 C64.39956153 100.84526423 60.68846965 100.85190586 57 101 C56.06542969 101.04125 55.13085938 101.0825 54.16796875 101.125 C31.75315726 101.61561147 8.38320296 95.73793294 -9 81 C-8.41734728 76.57676318 -6.73233789 73.4844136 -4.4375 69.6875 C-3.47650391 68.08455078 -3.47650391 68.08455078 -2.49609375 66.44921875 C-2.00238281 65.64097656 -1.50867188 64.83273438 -1 64 C-2.11375 65.175625 -2.11375 65.175625 -3.25 66.375 C-6.81812965 69.78094194 -8.32143339 70.90315962 -13.25 71.1875 C-19.65470518 69.15934336 -23.37373014 63.80713878 -26.67675781 58.10571289 C-28.19312763 55.0786094 -29.61595912 52.02722507 -31 48.9375 C-31.48855469 47.88111328 -31.97710937 46.82472656 -32.48046875 45.73632812 C-33.66785741 43.1636527 -34.84054994 40.58535559 -36 38 C-36.86625 38.495 -36.86625 38.495 -37.75 39 C-40 40 -40 40 -44 40 C-50.70548924 26.54146486 -59.48716445 8.29155093 -59 -7 C-39.08886754 -12.70831101 -17.19885722 -12.65518749 0 0 Z M-12 19 C-12.99 20.485 -12.99 20.485 -14 22 C-12.68 21.34 -11.36 20.68 -10 20 C-10.66 19.67 -11.32 19.34 -12 19 Z M13 38 C14 40 14 40 14 40 Z M39 40 C40 42 40 42 40 42 Z M9 45 C10 47 10 47 10 47 Z M38 45 C39 47 39 47 39 47 Z M6 50 C7 52 7 52 7 52 Z M37 50 C38 52 38 52 38 52 Z M5 52 C6 54 6 54 6 54 Z M36 54 C37 57 37 57 37 57 Z M3 55 C4 57 4 57 4 57 Z M2 57 C3 59 3 59 3 59 Z M35 58 C36 61 36 61 36 61 Z M1 59 C1 62 1 62 1 62 Z M34 63 C35 66 35 66 35 66 Z " fill="#FFB548" transform="translate(287,10)"/>
<path d="M0 0 C5.08533451 4.247596 9.80031347 8.70883725 14.4375 13.4375 C18.9683865 18.02248497 23.48780748 22.52043719 28.484375 26.60546875 C30 28 30 28 33 32 C28.38 38.27 23.76 44.54 19 51 C15.28347209 50.07086802 14.47558353 49.85357858 11.92578125 47.4375 C11.34836182 46.89561035 10.77094238 46.3537207 10.17602539 45.79541016 C9.25358032 44.90668213 9.25358032 44.90668213 8.3125 44 C7.66982178 43.39075684 7.02714355 42.78151367 6.36499023 42.15380859 C-1.56945127 34.58551356 -9.29337688 26.79909691 -17 19 C-15.60652624 15.84795019 -13.97514921 13.73828227 -11.5234375 11.328125 C-10.51796875 10.33232422 -10.51796875 10.33232422 -9.4921875 9.31640625 C-8.79351562 8.63449219 -8.09484375 7.95257813 -7.375 7.25 C-6.66859375 6.55261719 -5.9621875 5.85523438 -5.234375 5.13671875 C-3.49401297 3.41987512 -1.74915019 1.70788168 0 0 Z " fill="#FFB548" transform="translate(126,213)"/>
<path d="M0 0 C3.50867867 1.27375877 6.26384366 2.74388017 9.22265625 5.01171875 C10.39380981 5.89706299 10.39380981 5.89706299 11.58862305 6.80029297 C12.81319214 7.73446045 12.81319214 7.73446045 14.0625 8.6875 C21.13522011 14.00307741 28.17297065 18.84433172 36 23 C34.39323547 28.45593671 31.94969106 33.3302147 29.375 38.375 C28.95476562 39.20644531 28.53453125 40.03789062 28.1015625 40.89453125 C27.07133925 42.93156359 26.03741179 44.96662189 25 47 C11.0607703 41.95868727 -2.27585906 29.91034712 -14 21 C-12.66989397 18.21331377 -11.1874526 15.68446003 -9.43359375 13.14453125 C-8.94826172 12.44005859 -8.46292969 11.73558594 -7.96289062 11.00976562 C-7.45951172 10.28466797 -6.95613281 9.55957031 -6.4375 8.8125 C-5.67663086 7.70745117 -5.67663086 7.70745117 -4.90039062 6.58007812 C-1.1460891 1.1460891 -1.1460891 1.1460891 0 0 Z " fill="#FFB548" transform="translate(162,248)"/>
</svg>
