<svg width="31" height="31" viewBox="0 0 31 31" fill="none" xmlns="http://www.w3.org/2000/svg">
<g clip-path="url(#clip0_153_190)">
<path d="M15.5 0C6.93969 0 0 6.93969 0 15.5C0 24.0603 6.93969 31 15.5 31C24.0603 31 31 24.0603 31 15.5C31 6.93969 24.0603 0 15.5 0ZM15.1504 11.1944H22.9805C23.0445 11.1933 23.108 11.2065 23.1663 11.233C23.2246 11.2595 23.2763 11.2987 23.3176 11.3477C23.3588 11.3967 23.3886 11.4543 23.4048 11.5162C23.4209 11.5782 23.4231 11.643 23.411 11.7059V15.5809C24.4874 16.2561 25.2142 17.4478 25.2142 18.8101C25.2142 20.9121 23.5178 22.6309 21.4201 22.6309C20.5849 22.6309 19.8159 22.3381 19.1864 21.8774H7.31944C7.20525 21.8774 7.09574 21.832 7.015 21.7513C6.93425 21.6705 6.88889 21.561 6.88889 21.4468V11.6517C6.89321 11.5392 6.94144 11.4329 7.02322 11.3555C7.03969 11.3361 7.05785 11.3182 7.07747 11.3021C7.1481 11.2513 7.23246 11.2231 7.31944 11.2211L15.1504 11.1944ZM8.82639 12.0822L15.1504 16.0382L21.4735 12.0822H8.82639ZM22.5508 12.4052L15.3924 16.8993C15.3238 16.9422 15.2446 16.965 15.1637 16.965C15.0829 16.965 15.0036 16.9422 14.9351 16.8993L7.75 12.4319V21.0171H18.3253C17.9413 20.492 17.6998 19.8764 17.6243 19.2302C17.5489 18.584 17.642 17.9293 17.8948 17.3299C18.0876 16.8735 18.3847 16.4644 18.7292 16.1191C18.9014 15.9469 19.065 15.7721 19.2674 15.6343C19.4697 15.4974 19.7126 15.3812 19.9399 15.2847C20.4083 15.0872 20.9118 14.9865 21.4201 14.9885C21.5269 14.9885 21.613 14.9962 21.7164 15.0161C22.0048 15.0402 22.2838 15.0918 22.5499 15.1771L22.5508 12.4052ZM21.3934 15.8496C20.8161 15.8469 20.2511 16.0172 19.7715 16.3386C19.2918 16.66 18.9195 17.1177 18.7025 17.6528C18.6215 17.8346 18.5584 18.0237 18.5139 18.2177C18.4751 18.4106 18.4596 18.6052 18.4596 18.8101C18.4596 19.0262 18.4941 19.2493 18.5406 19.4559C18.591 19.6605 18.6632 19.8592 18.7559 20.0484C18.7714 20.0811 18.7662 20.1233 18.7834 20.1552C18.8626 20.3102 18.9729 20.4462 19.0788 20.5857C19.1046 20.6193 19.133 20.6615 19.1597 20.6934C19.2725 20.8286 19.3991 20.956 19.5369 21.0705C20.0632 21.5172 20.7298 21.7647 21.4201 21.7698C23.0511 21.7698 24.3531 20.4479 24.3531 18.8101C24.3531 17.6183 23.6642 16.5876 22.6584 16.1191C22.6085 16.0959 22.5465 16.0847 22.4965 16.0649C22.3142 15.9921 22.1249 15.9381 21.9316 15.9039C21.7631 15.8709 21.5919 15.8527 21.4201 15.8496H21.3934ZM22.7118 17.4917C22.8025 17.4832 22.8937 17.5037 22.972 17.5503C23.0504 17.5968 23.1119 17.667 23.1478 17.7508C23.1837 17.8346 23.1921 17.9276 23.1718 18.0164C23.1515 18.1053 23.1035 18.1854 23.0347 18.2452L21.3125 19.9674C21.2682 20.0149 21.2138 20.0517 21.1533 20.0751C21.0928 20.0986 21.0278 20.108 20.9631 20.1028C20.8985 20.0976 20.8358 20.0778 20.7798 20.045C20.7239 20.0122 20.6761 19.9671 20.64 19.9132L19.8056 19.1055C19.7408 19.0485 19.6947 18.9734 19.6732 18.89C19.6516 18.8065 19.6556 18.7185 19.6846 18.6373C19.7137 18.5561 19.7664 18.4855 19.836 18.4347C19.9056 18.3838 19.9889 18.355 20.0751 18.352C20.1354 18.3507 20.1953 18.362 20.2509 18.3853C20.3065 18.4086 20.3566 18.4433 20.398 18.4872L20.9896 19.0521L22.4156 17.6261C22.4928 17.544 22.5992 17.4963 22.7118 17.4917Z" fill="#A63A50"/>
</g>
<defs>
<clipPath id="clip0_153_190">
<rect width="31" height="31" fill="white"/>
</clipPath>
</defs>
</svg>
