<svg width="29" height="29" viewBox="0 0 29 29" fill="none" xmlns="http://www.w3.org/2000/svg">
<path d="M14.5 0C6.50442 0 0 6.50456 0 14.4997C0 22.4952 6.50442 29 14.5 29C22.4951 29 29 22.4952 29 14.4997C29 6.50456 22.4951 0 14.5 0ZM18.5981 9.1534C18.5981 9.22206 18.5708 9.2879 18.5223 9.33645C18.4737 9.385 18.4079 9.41228 18.3392 9.41228L16.6909 9.41331C15.6034 9.41331 15.4045 9.83684 15.4045 10.6709V12.4013H18.2315C18.3058 12.4013 18.3768 12.4334 18.4257 12.4893C18.4746 12.5452 18.4974 12.6195 18.4883 12.6933L18.0858 15.8084C18.0777 15.8708 18.0472 15.9281 17.9999 15.9697C17.9527 16.0112 17.8919 16.0341 17.829 16.0341H15.4045V23.7691C15.4045 23.8378 15.3773 23.9036 15.3287 23.9522C15.2802 24.0007 15.2143 24.028 15.1457 24.028H11.9293C11.8606 24.028 11.7948 24.0007 11.7462 23.9522C11.6977 23.9036 11.6704 23.8378 11.6704 23.7691V16.0341H9.23822C9.16956 16.0341 9.10371 16.0068 9.05516 15.9583C9.00661 15.9097 8.97933 15.8439 8.97933 15.7752V12.6602C8.97933 12.5915 9.00661 12.5257 9.05516 12.4771C9.10371 12.4286 9.16956 12.4013 9.23822 12.4013H11.6704V10.3626C11.6704 7.66252 13.3045 5.98551 15.9355 5.98551C17.0666 5.98551 18.0661 6.06965 18.3731 6.11029C18.4354 6.11851 18.4925 6.14906 18.5339 6.19626C18.5753 6.24345 18.5981 6.30407 18.5981 6.36684V9.1534Z" fill="#A63A50"/>
</svg>
