<svg width="384" height="225" viewBox="0 0 384 225" fill="none" xmlns="http://www.w3.org/2000/svg">
<path d="M232.157 28.5725L251.344 45.1411C251.666 45.4193 252.047 45.5448 252.42 45.5448C253.231 45.5448 254.003 44.9546 254.059 44.0522L255.564 19.1654C256.053 11.0575 249.308 4.79848 241.655 4.79848C239.904 4.79848 238.113 5.12412 236.345 5.82975C236.188 5.8942 236.031 5.95528 235.873 6.01974C226.48 9.86674 224.538 21.9946 232.157 28.5759V28.5725ZM231.787 16.845C232.338 13.612 234.42 11.0304 237.505 9.76838C237.648 9.70732 237.795 9.64964 237.941 9.59197C239.146 9.11024 240.397 8.86598 241.658 8.86598C244.313 8.86598 246.905 9.96514 248.766 11.8852C250.611 13.785 251.54 16.2852 251.383 18.9245L250.188 38.6921L234.948 25.5329C232.419 23.3482 231.238 20.1017 231.793 16.8484L231.787 16.845Z" fill="url(#paint0_linear_153_228)"/>
<path d="M287.994 32.2024L270.934 50.837C270.029 51.8276 270.696 53.3948 272.058 53.4695L297.684 54.9316C297.97 54.9486 298.257 54.9554 298.54 54.9554C308.345 54.9554 315.212 45.2361 311.415 36.2665C311.352 36.1139 311.286 35.9612 311.22 35.8086C308.911 30.4961 303.713 27.6362 298.435 27.6362C294.648 27.6362 290.823 29.1052 287.994 32.199V32.2024ZM298.435 31.7105C301.554 31.7105 305.536 33.2032 307.356 37.3928C307.419 37.5353 307.479 37.6744 307.538 37.8169C308.795 40.7818 308.46 44.0081 306.623 46.6711C304.775 49.3511 301.83 50.8845 298.54 50.8845C298.337 50.8845 298.135 50.8777 297.932 50.8675L277.578 49.7073L291.127 34.9062C293.014 32.847 295.609 31.7105 298.435 31.7105Z" fill="url(#paint1_linear_153_228)"/>
<path d="M262.355 44.0488C262.411 44.9546 263.182 45.5414 263.993 45.5414C264.367 45.5414 264.747 45.4159 265.069 45.1377L284.256 28.5691C291.875 21.9912 289.933 9.86334 280.54 6.01295C280.383 5.94849 280.225 5.88406 280.068 5.823C278.301 5.11737 276.505 4.79169 274.759 4.79169C267.109 4.79169 260.36 11.0507 260.849 19.1586L262.355 44.0454V44.0488ZM267.65 11.8819C269.512 9.96513 272.104 8.86259 274.759 8.86259C276.016 8.86259 277.267 9.10685 278.475 9.58857C278.622 9.64624 278.765 9.70392 278.912 9.76498C281.996 11.027 284.078 13.6086 284.63 16.8416C285.186 20.0949 284.005 23.3414 281.476 25.5261L266.235 38.6854L265.041 18.9177C264.88 16.2784 265.809 13.7816 267.657 11.8785L267.65 11.8819Z" fill="url(#paint2_linear_153_228)"/>
<path d="M217.873 54.9588C218.156 54.9588 218.439 54.952 218.729 54.935L244.355 53.4728C245.713 53.3948 246.384 51.8275 245.479 50.8403L228.419 32.2058C225.59 29.1153 221.765 27.643 217.978 27.643C212.7 27.643 207.502 30.5029 205.193 35.8154C205.127 35.968 205.061 36.1206 204.998 36.2733C201.197 45.2429 208.065 54.9622 217.873 54.9622V54.9588ZM208.875 37.8169C208.935 37.6744 208.994 37.5353 209.057 37.3928C210.877 33.2032 214.859 31.7105 217.978 31.7105C220.804 31.7105 223.4 32.8436 225.286 34.9062L238.836 49.7073L218.481 50.8675C218.279 50.8777 218.073 50.8845 217.873 50.8845C214.583 50.8845 211.638 49.3477 209.79 46.6677C207.953 44.0047 207.621 40.7785 208.875 37.8135V37.8169Z" fill="url(#paint3_linear_153_228)"/>
<path d="M284.256 86.4288L265.069 69.8602C264.747 69.582 264.367 69.4565 263.993 69.4565C263.183 69.4565 262.411 70.0467 262.355 70.9491L260.849 95.8359C260.36 103.944 267.105 110.203 274.759 110.203C276.509 110.203 278.301 109.877 280.068 109.172C280.225 109.107 280.383 109.046 280.54 108.982C289.933 105.135 291.875 93.0066 284.256 86.4254V86.4288ZM284.627 98.1564C284.075 101.389 281.993 103.971 278.912 105.233C278.765 105.294 278.619 105.352 278.472 105.409C277.267 105.891 276.016 106.135 274.755 106.135C272.1 106.135 269.509 105.036 267.647 103.116C265.802 101.216 264.873 98.7161 265.03 96.0768L266.225 76.3091L281.465 89.4683C283.994 91.6531 285.175 94.8996 284.62 98.153L284.627 98.1564Z" fill="url(#paint4_linear_153_228)"/>
<path d="M298.54 60.0429C298.257 60.0429 297.974 60.0497 297.684 60.0667L272.058 61.5287C270.7 61.6068 270.029 63.1741 270.934 64.1613L287.994 82.7959C290.823 85.8864 294.648 87.3587 298.435 87.3587C303.713 87.3587 308.911 84.4988 311.22 79.1863C311.286 79.0336 311.352 78.881 311.415 78.7284C315.216 69.7588 308.348 60.0395 298.54 60.0395V60.0429ZM307.538 77.1848C307.479 77.3273 307.419 77.4664 307.356 77.6088C305.536 81.7985 301.554 83.2911 298.435 83.2911C295.609 83.2911 293.014 82.1547 291.127 80.0955L277.578 65.2943L297.932 64.1342C298.134 64.124 298.341 64.1172 298.54 64.1172C301.83 64.1172 304.775 65.6539 306.623 68.3305C308.46 70.9936 308.792 74.2198 307.538 77.1848Z" fill="url(#paint5_linear_153_228)"/>
<path d="M254.058 70.9526C254.003 70.0468 253.231 69.46 252.42 69.46C252.046 69.46 251.666 69.5855 251.344 69.8637L232.157 86.4323C224.538 93.0102 226.48 105.138 235.873 108.988C236.031 109.053 236.188 109.117 236.345 109.178C238.112 109.884 239.908 110.21 241.654 110.21C249.304 110.21 256.053 103.951 255.564 95.8428L254.058 70.956V70.9526ZM248.763 103.12C246.901 105.036 244.309 106.139 241.654 106.139C240.397 106.139 239.146 105.895 237.938 105.413C237.791 105.355 237.644 105.294 237.501 105.236C234.417 103.974 232.335 101.393 231.783 98.1599C231.231 94.9065 232.408 91.66 234.937 89.4753L250.178 76.316L251.372 96.0837C251.533 98.723 250.604 101.22 248.756 103.123L248.763 103.12Z" fill="url(#paint6_linear_153_228)"/>
<path d="M228.419 82.7995L245.479 64.1649C246.384 63.1743 245.717 61.607 244.355 61.5324L218.729 60.0703C218.443 60.0533 218.156 60.0465 217.873 60.0465C208.068 60.0465 201.201 69.7658 204.998 78.7354C205.064 78.888 205.127 79.0406 205.193 79.1933C207.502 84.5058 212.7 87.3657 217.978 87.3657C221.765 87.3657 225.59 85.8968 228.419 82.8029V82.7995ZM217.978 83.2914C214.859 83.2914 210.877 81.7987 209.057 77.6091C208.994 77.4666 208.934 77.3275 208.875 77.185C207.618 74.22 207.953 70.9938 209.79 68.3308C211.638 65.6508 214.583 64.1174 217.873 64.1174C218.076 64.1174 218.279 64.1242 218.481 64.1344L238.835 65.2946L225.286 80.0957C223.399 82.1549 220.804 83.2914 217.978 83.2914Z" fill="url(#paint7_linear_153_228)"/>
<path d="M258.205 62.7976C261.216 62.7976 263.657 60.4267 263.657 57.5021C263.657 54.5774 261.216 52.2064 258.205 52.2064C255.193 52.2064 252.752 54.5774 252.752 57.5021C252.752 60.4267 255.193 62.7976 258.205 62.7976Z" fill="url(#paint8_linear_153_228)"/>
<path d="M162.462 145.176H146.718C146.419 144.707 146.142 144.067 145.886 143.256C145.63 142.445 145.502 141.592 145.502 140.696C145.502 139.032 145.865 137.837 146.59 137.112C147.358 136.387 148.339 136.024 149.534 136.024H173.406C175.283 137.56 176.222 139.608 176.222 142.168C176.222 143.235 175.966 144.301 175.454 145.368C174.985 146.392 174.366 147.373 173.598 148.312L159.07 165.848H175.454C175.753 166.317 176.03 166.957 176.286 167.768C176.542 168.579 176.67 169.432 176.67 170.328C176.67 171.992 176.286 173.187 175.518 173.912C174.793 174.637 173.833 175 172.638 175H147.422C146.697 174.403 146.099 173.592 145.63 172.568C145.161 171.544 144.926 170.371 144.926 169.048C144.926 167.981 145.203 166.893 145.758 165.784C146.313 164.675 146.974 163.651 147.742 162.712L162.462 145.176ZM191.291 137.368C192.016 136.941 193.104 136.536 194.555 136.152C196.048 135.768 197.542 135.576 199.035 135.576C201.168 135.576 203.046 135.896 204.667 136.536C206.331 137.133 207.398 138.093 207.867 139.416C208.635 141.635 209.467 144.216 210.363 147.16C211.259 150.104 212.155 153.155 213.051 156.312C213.947 159.427 214.822 162.52 215.675 165.592C216.528 168.621 217.275 171.309 217.915 173.656C217.403 174.253 216.635 174.723 215.611 175.064C214.587 175.448 213.371 175.64 211.963 175.64C210.939 175.64 210.064 175.555 209.339 175.384C208.656 175.213 208.08 174.957 207.611 174.616C207.184 174.275 206.822 173.827 206.523 173.272C206.267 172.717 206.032 172.077 205.819 171.352L204.667 166.936H193.083C192.742 168.216 192.4 169.539 192.059 170.904C191.718 172.269 191.376 173.592 191.035 174.872C190.438 175.085 189.798 175.256 189.115 175.384C188.475 175.555 187.686 175.64 186.747 175.64C184.571 175.64 182.95 175.277 181.883 174.552C180.859 173.784 180.347 172.739 180.347 171.416C180.347 170.819 180.432 170.221 180.603 169.624C180.774 169.027 180.966 168.323 181.179 167.512C181.478 166.36 181.883 164.931 182.395 163.224C182.95 161.517 183.547 159.683 184.187 157.72C184.827 155.715 185.51 153.667 186.235 151.576C186.96 149.485 187.643 147.523 188.283 145.688C188.923 143.811 189.499 142.147 190.011 140.696C190.566 139.245 190.992 138.136 191.291 137.368ZM198.971 145.624C198.374 147.416 197.691 149.421 196.923 151.64C196.198 153.816 195.536 156.035 194.939 158.296H202.875C202.278 155.992 201.659 153.752 201.019 151.576C200.422 149.357 199.867 147.373 199.355 145.624H198.971ZM257.848 174.744C257.379 174.872 256.632 175 255.608 175.128C254.627 175.256 253.645 175.32 252.664 175.32C251.683 175.32 250.808 175.235 250.04 175.064C249.315 174.936 248.696 174.68 248.184 174.296C247.672 173.912 247.288 173.379 247.032 172.696C246.776 172.013 246.648 171.117 246.648 170.008V160.024H234.36V174.744C233.891 174.872 233.144 175 232.12 175.128C231.139 175.256 230.157 175.32 229.176 175.32C228.195 175.32 227.32 175.235 226.552 175.064C225.827 174.936 225.208 174.68 224.696 174.296C224.184 173.912 223.8 173.379 223.544 172.696C223.288 172.013 223.16 171.117 223.16 170.008V136.216C223.629 136.131 224.376 136.024 225.4 135.896C226.424 135.725 227.405 135.64 228.344 135.64C229.325 135.64 230.179 135.725 230.904 135.896C231.672 136.024 232.312 136.28 232.824 136.664C233.336 137.048 233.72 137.581 233.976 138.264C234.232 138.947 234.36 139.843 234.36 140.952V151.192H246.648V136.216C247.117 136.131 247.864 136.024 248.888 135.896C249.912 135.725 250.893 135.64 251.832 135.64C252.813 135.64 253.667 135.725 254.392 135.896C255.16 136.024 255.8 136.28 256.312 136.664C256.824 137.048 257.208 137.581 257.464 138.264C257.72 138.947 257.848 139.843 257.848 140.952V174.744ZM277.296 162.456V174.744C276.827 174.872 276.08 175 275.056 175.128C274.075 175.256 273.093 175.32 272.112 175.32C271.131 175.32 270.256 175.235 269.488 175.064C268.763 174.936 268.144 174.68 267.632 174.296C267.163 173.912 266.8 173.379 266.544 172.696C266.288 172.013 266.16 171.117 266.16 170.008V139.864C266.16 138.968 266.395 138.285 266.864 137.816C267.376 137.304 268.059 136.899 268.912 136.6C270.363 136.088 272.048 135.725 273.968 135.512C275.888 135.256 277.936 135.128 280.112 135.128C286 135.128 290.437 136.365 293.424 138.84C296.411 141.315 297.904 144.664 297.904 148.888C297.904 151.533 297.221 153.795 295.856 155.672C294.491 157.549 292.869 159 290.992 160.024C292.528 162.115 294.043 164.077 295.536 165.912C297.029 167.747 298.203 169.411 299.056 170.904C298.629 172.397 297.84 173.549 296.688 174.36C295.579 175.128 294.32 175.512 292.912 175.512C291.973 175.512 291.163 175.405 290.48 175.192C289.797 174.979 289.2 174.68 288.688 174.296C288.176 173.912 287.707 173.443 287.28 172.888C286.853 172.333 286.448 171.736 286.064 171.096L280.688 162.456H277.296ZM281.328 153.944C282.949 153.944 284.229 153.539 285.168 152.728C286.107 151.875 286.576 150.637 286.576 149.016C286.576 147.395 286.043 146.179 284.976 145.368C283.952 144.515 282.309 144.088 280.048 144.088C279.408 144.088 278.896 144.109 278.512 144.152C278.128 144.195 277.701 144.259 277.232 144.344V153.944H281.328ZM313.916 137.368C314.641 136.941 315.729 136.536 317.18 136.152C318.673 135.768 320.167 135.576 321.66 135.576C323.793 135.576 325.671 135.896 327.292 136.536C328.956 137.133 330.023 138.093 330.492 139.416C331.26 141.635 332.092 144.216 332.988 147.16C333.884 150.104 334.78 153.155 335.676 156.312C336.572 159.427 337.447 162.52 338.3 165.592C339.153 168.621 339.9 171.309 340.54 173.656C340.028 174.253 339.26 174.723 338.236 175.064C337.212 175.448 335.996 175.64 334.588 175.64C333.564 175.64 332.689 175.555 331.964 175.384C331.281 175.213 330.705 174.957 330.236 174.616C329.809 174.275 329.447 173.827 329.148 173.272C328.892 172.717 328.657 172.077 328.444 171.352L327.292 166.936H315.708C315.367 168.216 315.025 169.539 314.684 170.904C314.343 172.269 314.001 173.592 313.66 174.872C313.063 175.085 312.423 175.256 311.74 175.384C311.1 175.555 310.311 175.64 309.372 175.64C307.196 175.64 305.575 175.277 304.508 174.552C303.484 173.784 302.972 172.739 302.972 171.416C302.972 170.819 303.057 170.221 303.228 169.624C303.399 169.027 303.591 168.323 303.804 167.512C304.103 166.36 304.508 164.931 305.02 163.224C305.575 161.517 306.172 159.683 306.812 157.72C307.452 155.715 308.135 153.667 308.86 151.576C309.585 149.485 310.268 147.523 310.908 145.688C311.548 143.811 312.124 142.147 312.636 140.696C313.191 139.245 313.617 138.136 313.916 137.368ZM321.596 145.624C320.999 147.416 320.316 149.421 319.548 151.64C318.823 153.816 318.161 156.035 317.564 158.296H325.5C324.903 155.992 324.284 153.752 323.644 151.576C323.047 149.357 322.492 147.373 321.98 145.624H321.596ZM355.291 137.368C356.016 136.941 357.104 136.536 358.555 136.152C360.048 135.768 361.542 135.576 363.035 135.576C365.168 135.576 367.046 135.896 368.667 136.536C370.331 137.133 371.398 138.093 371.867 139.416C372.635 141.635 373.467 144.216 374.363 147.16C375.259 150.104 376.155 153.155 377.051 156.312C377.947 159.427 378.822 162.52 379.675 165.592C380.528 168.621 381.275 171.309 381.915 173.656C381.403 174.253 380.635 174.723 379.611 175.064C378.587 175.448 377.371 175.64 375.963 175.64C374.939 175.64 374.064 175.555 373.339 175.384C372.656 175.213 372.08 174.957 371.611 174.616C371.184 174.275 370.822 173.827 370.523 173.272C370.267 172.717 370.032 172.077 369.819 171.352L368.667 166.936H357.083C356.742 168.216 356.4 169.539 356.059 170.904C355.718 172.269 355.376 173.592 355.035 174.872C354.438 175.085 353.798 175.256 353.115 175.384C352.475 175.555 351.686 175.64 350.747 175.64C348.571 175.64 346.95 175.277 345.883 174.552C344.859 173.784 344.347 172.739 344.347 171.416C344.347 170.819 344.432 170.221 344.603 169.624C344.774 169.027 344.966 168.323 345.179 167.512C345.478 166.36 345.883 164.931 346.395 163.224C346.95 161.517 347.547 159.683 348.187 157.72C348.827 155.715 349.51 153.667 350.235 151.576C350.96 149.485 351.643 147.523 352.283 145.688C352.923 143.811 353.499 142.147 354.011 140.696C354.566 139.245 354.992 138.136 355.291 137.368ZM362.971 145.624C362.374 147.416 361.691 149.421 360.923 151.64C360.198 153.816 359.536 156.035 358.939 158.296H366.875C366.278 155.992 365.659 153.752 365.019 151.576C364.422 149.357 363.867 147.373 363.355 145.624H362.971Z" fill="#2B2626"/>
<path d="M146.24 197L151.28 185.8H153.328L158.384 197H156.208L151.872 186.904H152.704L148.384 197H146.24ZM148.56 194.408L149.12 192.776H155.168L155.728 194.408H148.56ZM190.116 197.16C189.263 197.16 188.468 197.021 187.732 196.744C187.007 196.456 186.372 196.056 185.828 195.544C185.295 195.021 184.879 194.408 184.58 193.704C184.281 193 184.132 192.232 184.132 191.4C184.132 190.568 184.281 189.8 184.58 189.096C184.879 188.392 185.3 187.784 185.844 187.272C186.388 186.749 187.023 186.349 187.748 186.072C188.473 185.784 189.268 185.64 190.132 185.64C191.049 185.64 191.887 185.8 192.644 186.12C193.401 186.429 194.041 186.893 194.564 187.512L193.22 188.776C192.815 188.339 192.361 188.013 191.86 187.8C191.359 187.576 190.815 187.464 190.228 187.464C189.641 187.464 189.103 187.56 188.612 187.752C188.132 187.944 187.711 188.216 187.348 188.568C186.996 188.92 186.719 189.336 186.516 189.816C186.324 190.296 186.228 190.824 186.228 191.4C186.228 191.976 186.324 192.504 186.516 192.984C186.719 193.464 186.996 193.88 187.348 194.232C187.711 194.584 188.132 194.856 188.612 195.048C189.103 195.24 189.641 195.336 190.228 195.336C190.815 195.336 191.359 195.229 191.86 195.016C192.361 194.792 192.815 194.456 193.22 194.008L194.564 195.288C194.041 195.896 193.401 196.36 192.644 196.68C191.887 197 191.044 197.16 190.116 197.16ZM220.019 197L225.059 185.8H227.107L232.163 197H229.987L225.651 186.904H226.483L222.163 197H220.019ZM222.339 194.408L222.899 192.776H228.947L229.507 194.408H222.339ZM258.867 197V185.8H263.763C264.979 185.8 266.046 186.035 266.963 186.504C267.88 186.973 268.595 187.624 269.107 188.456C269.619 189.288 269.875 190.269 269.875 191.4C269.875 192.52 269.619 193.501 269.107 194.344C268.595 195.176 267.88 195.827 266.963 196.296C266.046 196.765 264.979 197 263.763 197H258.867ZM260.947 195.24H263.667C264.51 195.24 265.235 195.08 265.843 194.76C266.462 194.44 266.936 193.992 267.267 193.416C267.608 192.84 267.779 192.168 267.779 191.4C267.779 190.621 267.608 189.949 267.267 189.384C266.936 188.808 266.462 188.36 265.843 188.04C265.235 187.72 264.51 187.56 263.667 187.56H260.947V195.24ZM299.286 190.456H304.854V192.168H299.286V190.456ZM299.446 195.256H305.766V197H297.366V185.8H305.542V187.544H299.446V195.256ZM333.365 197V185.8H335.077L339.973 193.976H339.077L343.893 185.8H345.605L345.621 197H343.653L343.637 188.888H344.053L339.957 195.72H339.029L334.869 188.888H335.349V197H333.365ZM376.678 197V192.568L377.142 193.848L372.278 185.8H374.502L378.406 192.28H377.158L381.094 185.8H383.142L378.278 193.848L378.758 192.568V197H376.678Z" fill="url(#paint9_linear_153_228)"/>
<defs>
<linearGradient id="paint0_linear_153_228" x1="258.207" y1="-33.4998" x2="258.207" y2="129.5" gradientUnits="userSpaceOnUse">
<stop stop-color="#A63A50"/>
<stop offset="0.318" stop-color="#B0545F"/>
<stop offset="0.663" stop-color="#ED929A"/>
<stop offset="1" stop-color="#84A59D"/>
</linearGradient>
<linearGradient id="paint1_linear_153_228" x1="258.207" y1="-33.4998" x2="258.207" y2="129.5" gradientUnits="userSpaceOnUse">
<stop stop-color="#A63A50"/>
<stop offset="0.318" stop-color="#B0545F"/>
<stop offset="0.663" stop-color="#ED929A"/>
<stop offset="1" stop-color="#84A59D"/>
</linearGradient>
<linearGradient id="paint2_linear_153_228" x1="258.207" y1="-33.4998" x2="258.207" y2="129.5" gradientUnits="userSpaceOnUse">
<stop stop-color="#A63A50"/>
<stop offset="0.318" stop-color="#B0545F"/>
<stop offset="0.663" stop-color="#ED929A"/>
<stop offset="1" stop-color="#84A59D"/>
</linearGradient>
<linearGradient id="paint3_linear_153_228" x1="258.207" y1="-33.4998" x2="258.207" y2="129.5" gradientUnits="userSpaceOnUse">
<stop stop-color="#A63A50"/>
<stop offset="0.318" stop-color="#B0545F"/>
<stop offset="0.663" stop-color="#ED929A"/>
<stop offset="1" stop-color="#84A59D"/>
</linearGradient>
<linearGradient id="paint4_linear_153_228" x1="258.207" y1="-33.4998" x2="258.207" y2="129.5" gradientUnits="userSpaceOnUse">
<stop stop-color="#A63A50"/>
<stop offset="0.318" stop-color="#B0545F"/>
<stop offset="0.663" stop-color="#ED929A"/>
<stop offset="1" stop-color="#84A59D"/>
</linearGradient>
<linearGradient id="paint5_linear_153_228" x1="258.207" y1="-33.4998" x2="258.207" y2="129.5" gradientUnits="userSpaceOnUse">
<stop stop-color="#A63A50"/>
<stop offset="0.318" stop-color="#B0545F"/>
<stop offset="0.663" stop-color="#ED929A"/>
<stop offset="1" stop-color="#84A59D"/>
</linearGradient>
<linearGradient id="paint6_linear_153_228" x1="258.207" y1="-33.4998" x2="258.207" y2="129.5" gradientUnits="userSpaceOnUse">
<stop stop-color="#A63A50"/>
<stop offset="0.318" stop-color="#B0545F"/>
<stop offset="0.663" stop-color="#ED929A"/>
<stop offset="1" stop-color="#84A59D"/>
</linearGradient>
<linearGradient id="paint7_linear_153_228" x1="258.207" y1="-33.4998" x2="258.207" y2="129.5" gradientUnits="userSpaceOnUse">
<stop stop-color="#A63A50"/>
<stop offset="0.318" stop-color="#B0545F"/>
<stop offset="0.663" stop-color="#ED929A"/>
<stop offset="1" stop-color="#84A59D"/>
</linearGradient>
<linearGradient id="paint8_linear_153_228" x1="258.207" y1="-33.4998" x2="258.207" y2="129.5" gradientUnits="userSpaceOnUse">
<stop stop-color="#A63A50"/>
<stop offset="0.318" stop-color="#B0545F"/>
<stop offset="0.663" stop-color="#ED929A"/>
<stop offset="1" stop-color="#84A59D"/>
</linearGradient>
<linearGradient id="paint9_linear_153_228" x1="27.605" y1="196.862" x2="409.462" y2="207.134" gradientUnits="userSpaceOnUse">
<stop stop-color="#A63A50"/>
<stop offset="0.318" stop-color="#B0545F"/>
<stop offset="0.663" stop-color="#ED929A"/>
<stop offset="1" stop-color="#84A59D"/>
</linearGradient>
</defs>
</svg>
