<svg width="110" height="107" viewBox="0 0 110 107" fill="none" xmlns="http://www.w3.org/2000/svg">
<path d="M29.1568 24.5725L48.3444 41.1411C48.6658 41.4193 49.0465 41.5448 49.4203 41.5448C50.2307 41.5448 51.0027 40.9546 51.0586 40.0522L52.5641 15.1654C53.0531 7.05748 46.3079 0.798478 38.6545 0.798478C36.9045 0.798478 35.1125 1.12412 33.345 1.82975C33.1878 1.8942 33.0306 1.95528 32.8734 2.01974C23.4805 5.86674 21.5383 17.9946 29.1568 24.5759V24.5725ZM28.7865 12.845C29.3384 9.61199 31.4203 7.03036 34.5047 5.76838C34.6479 5.70732 34.7946 5.64964 34.9414 5.59197C36.1465 5.11024 37.397 4.86598 38.658 4.86598C41.3128 4.86598 43.9047 5.96514 45.7665 7.88525C47.6109 9.785 48.54 12.2852 48.3828 14.9245L47.1882 34.6921L31.9478 21.5329C29.4188 19.3482 28.2381 16.1017 28.7935 12.8484L28.7865 12.845Z" fill="url(#paint0_linear_153_230)"/>
<path d="M84.994 28.2024L67.9337 46.837C67.029 47.8276 67.6962 49.3948 69.0585 49.4695L94.6839 50.9316C94.9703 50.9486 95.2568 50.9554 95.5397 50.9554C105.345 50.9554 112.212 41.2361 108.415 32.2665C108.352 32.1139 108.286 31.9612 108.22 31.8086C105.911 26.4961 100.713 23.6362 95.4349 23.6362C91.6484 23.6362 87.8234 25.1052 84.994 28.199V28.2024ZM95.4349 27.7105C98.5543 27.7105 102.536 29.2032 104.356 33.3928C104.419 33.5353 104.479 33.6744 104.538 33.8169C105.795 36.7818 105.46 40.0081 103.623 42.6711C101.775 45.3511 98.8302 46.8845 95.5397 46.8845C95.3371 46.8845 95.1345 46.8777 94.9319 46.8675L74.5776 45.7073L88.1274 30.9062C90.0136 28.847 92.609 27.7105 95.4349 27.7105Z" fill="url(#paint1_linear_153_230)"/>
<path d="M59.3546 40.0488C59.4105 40.9546 60.1825 41.5414 60.9929 41.5414C61.3666 41.5414 61.7474 41.4159 62.0687 41.1377L81.2564 24.5691C88.8748 17.9912 86.9327 5.86334 77.5397 2.01295C77.3825 1.94849 77.2253 1.88406 77.0681 1.823C75.3006 1.11737 73.5052 0.791687 71.7586 0.791687C64.1087 0.791687 57.3601 7.05069 57.8491 15.1586L59.3546 40.0454V40.0488ZM64.6502 7.88185C66.512 5.96513 69.1039 4.86259 71.7586 4.86259C73.0162 4.86259 74.2667 5.10685 75.4753 5.58857C75.622 5.64624 75.7652 5.70392 75.9119 5.76498C78.9963 7.02696 81.0782 9.60859 81.6301 12.8416C82.1855 16.0949 81.0049 19.3414 78.4759 21.5261L63.2355 34.6854L62.0408 14.9177C61.8801 12.2784 62.8093 9.7816 64.6572 7.87845L64.6502 7.88185Z" fill="url(#paint2_linear_153_230)"/>
<path d="M14.8734 50.9588C15.1564 50.9588 15.4393 50.952 15.7292 50.935L41.3547 49.4728C42.7135 49.3948 43.3842 47.8275 42.4795 46.8403L25.4191 28.2058C22.5897 25.1153 18.7647 23.643 14.9782 23.643C9.70013 23.643 4.50239 26.5029 2.19345 31.8154C2.12708 31.968 2.06071 32.1206 1.99784 32.2733C-1.80266 41.2429 5.06478 50.9622 14.8734 50.9622V50.9588ZM5.87519 33.8169C5.93457 33.6744 5.99395 33.5353 6.05682 33.3928C7.87673 29.2032 11.8589 27.7105 14.9782 27.7105C17.8041 27.7105 20.3995 28.8436 22.2858 30.9062L35.8356 45.7073L15.4812 46.8675C15.2786 46.8777 15.0725 46.8845 14.8734 46.8845C11.5829 46.8845 8.63823 45.3477 6.79038 42.6677C4.953 40.0047 4.62116 36.7785 5.87519 33.8135V33.8169Z" fill="url(#paint3_linear_153_230)"/>
<path d="M81.2564 82.4288L62.0688 65.8602C61.7474 65.582 61.3667 65.4565 60.9929 65.4565C60.1825 65.4565 59.4105 66.0467 59.3547 66.9491L57.8491 91.8359C57.3601 99.9438 64.1053 106.203 71.7587 106.203C73.5087 106.203 75.3007 105.877 77.0682 105.172C77.2254 105.107 77.3826 105.046 77.5398 104.982C86.9327 101.135 88.8749 89.0066 81.2564 82.4254V82.4288ZM81.6267 94.1564C81.0748 97.3893 78.9929 99.9709 75.912 101.233C75.7653 101.294 75.6185 101.352 75.4718 101.409C74.2667 101.891 73.0162 102.135 71.7552 102.135C69.1004 102.135 66.5085 101.036 64.6467 99.116C62.8023 97.2163 61.8732 94.7161 62.0304 92.0768L63.225 72.3091L78.4654 85.4683C80.9944 87.6531 82.1751 90.8996 81.6197 94.153L81.6267 94.1564Z" fill="url(#paint4_linear_153_230)"/>
<path d="M95.5396 56.0429C95.2567 56.0429 94.9738 56.0497 94.6838 56.0667L69.0584 57.5287C67.6996 57.6068 67.0289 59.1741 67.9336 60.1613L84.994 78.7959C87.8234 81.8864 91.6483 83.3587 95.4349 83.3587C100.713 83.3587 105.911 80.4988 108.22 75.1863C108.286 75.0336 108.352 74.881 108.415 74.7284C112.216 65.7588 105.348 56.0395 95.5396 56.0395V56.0429ZM104.538 73.1848C104.479 73.3273 104.419 73.4664 104.356 73.6088C102.536 77.7985 98.5542 79.2911 95.4349 79.2911C92.6089 79.2911 90.0136 78.1547 88.1273 76.0955L74.5775 61.2943L94.9319 60.1342C95.1345 60.124 95.3405 60.1172 95.5396 60.1172C98.8302 60.1172 101.775 61.6539 103.623 64.3305C105.46 66.9936 105.792 70.2198 104.538 73.1848Z" fill="url(#paint5_linear_153_230)"/>
<path d="M51.0584 66.9526C51.0026 66.0468 50.2306 65.46 49.4202 65.46C49.0464 65.46 48.6657 65.5855 48.3443 65.8637L29.1567 82.4323C21.5382 89.0102 23.4804 101.138 32.8733 104.988C33.0305 105.053 33.1877 105.117 33.3449 105.178C35.1124 105.884 36.9079 106.21 38.6544 106.21C46.3043 106.21 53.053 99.9507 52.564 91.8428L51.0584 66.956V66.9526ZM45.7629 99.1195C43.9011 101.036 41.3092 102.139 38.6544 102.139C37.3969 102.139 36.1464 101.895 34.9378 101.413C34.791 101.355 34.6443 101.294 34.5011 101.236C31.4167 99.9744 29.3348 97.3929 28.7829 94.1599C28.231 90.9065 29.4082 87.66 31.9372 85.4753L47.1776 72.316L48.3722 92.0837C48.5329 94.723 47.6038 97.2198 45.7559 99.1229L45.7629 99.1195Z" fill="url(#paint6_linear_153_230)"/>
<path d="M25.419 78.7995L42.4793 60.1649C43.3841 59.1743 42.7169 57.607 41.3545 57.5324L15.7291 56.0703C15.4427 56.0533 15.1562 56.0465 14.8733 56.0465C5.06816 56.0465 -1.79929 65.7658 1.99772 74.7354C2.06409 74.888 2.12696 75.0406 2.19333 75.1933C4.50228 80.5058 9.70001 83.3657 14.9781 83.3657C18.7646 83.3657 22.5896 81.8968 25.419 78.8029V78.7995ZM14.9781 79.2914C11.8588 79.2914 7.87662 77.7987 6.05671 73.6091C5.99383 73.4666 5.93445 73.3275 5.87507 73.185C4.61755 70.22 4.95289 66.9938 6.79026 64.3308C8.63812 61.6508 11.5828 60.1174 14.8733 60.1174C15.0759 60.1174 15.2785 60.1242 15.4811 60.1344L35.8354 61.2946L22.2857 76.0957C20.3994 78.1549 17.804 79.2914 14.9781 79.2914Z" fill="url(#paint7_linear_153_230)"/>
<path d="M55.2048 58.7976C58.2162 58.7976 60.6575 56.4267 60.6575 53.5021C60.6575 50.5774 58.2162 48.2064 55.2048 48.2064C52.1933 48.2064 49.752 50.5774 49.752 53.5021C49.752 56.4267 52.1933 58.7976 55.2048 58.7976Z" fill="url(#paint8_linear_153_230)"/>
<defs>
<linearGradient id="paint0_linear_153_230" x1="55.2065" y1="-37.4998" x2="55.2065" y2="125.5" gradientUnits="userSpaceOnUse">
<stop stop-color="#A63A50"/>
<stop offset="0.318" stop-color="#B0545F"/>
<stop offset="0.663" stop-color="#ED929A"/>
<stop offset="1" stop-color="#84A59D"/>
</linearGradient>
<linearGradient id="paint1_linear_153_230" x1="55.2065" y1="-37.4998" x2="55.2065" y2="125.5" gradientUnits="userSpaceOnUse">
<stop stop-color="#A63A50"/>
<stop offset="0.318" stop-color="#B0545F"/>
<stop offset="0.663" stop-color="#ED929A"/>
<stop offset="1" stop-color="#84A59D"/>
</linearGradient>
<linearGradient id="paint2_linear_153_230" x1="55.2065" y1="-37.4998" x2="55.2065" y2="125.5" gradientUnits="userSpaceOnUse">
<stop stop-color="#A63A50"/>
<stop offset="0.318" stop-color="#B0545F"/>
<stop offset="0.663" stop-color="#ED929A"/>
<stop offset="1" stop-color="#84A59D"/>
</linearGradient>
<linearGradient id="paint3_linear_153_230" x1="55.2065" y1="-37.4998" x2="55.2065" y2="125.5" gradientUnits="userSpaceOnUse">
<stop stop-color="#A63A50"/>
<stop offset="0.318" stop-color="#B0545F"/>
<stop offset="0.663" stop-color="#ED929A"/>
<stop offset="1" stop-color="#84A59D"/>
</linearGradient>
<linearGradient id="paint4_linear_153_230" x1="55.2065" y1="-37.4998" x2="55.2065" y2="125.5" gradientUnits="userSpaceOnUse">
<stop stop-color="#A63A50"/>
<stop offset="0.318" stop-color="#B0545F"/>
<stop offset="0.663" stop-color="#ED929A"/>
<stop offset="1" stop-color="#84A59D"/>
</linearGradient>
<linearGradient id="paint5_linear_153_230" x1="55.2065" y1="-37.4998" x2="55.2065" y2="125.5" gradientUnits="userSpaceOnUse">
<stop stop-color="#A63A50"/>
<stop offset="0.318" stop-color="#B0545F"/>
<stop offset="0.663" stop-color="#ED929A"/>
<stop offset="1" stop-color="#84A59D"/>
</linearGradient>
<linearGradient id="paint6_linear_153_230" x1="55.2065" y1="-37.4998" x2="55.2065" y2="125.5" gradientUnits="userSpaceOnUse">
<stop stop-color="#A63A50"/>
<stop offset="0.318" stop-color="#B0545F"/>
<stop offset="0.663" stop-color="#ED929A"/>
<stop offset="1" stop-color="#84A59D"/>
</linearGradient>
<linearGradient id="paint7_linear_153_230" x1="55.2065" y1="-37.4998" x2="55.2065" y2="125.5" gradientUnits="userSpaceOnUse">
<stop stop-color="#A63A50"/>
<stop offset="0.318" stop-color="#B0545F"/>
<stop offset="0.663" stop-color="#ED929A"/>
<stop offset="1" stop-color="#84A59D"/>
</linearGradient>
<linearGradient id="paint8_linear_153_230" x1="55.2065" y1="-37.4998" x2="55.2065" y2="125.5" gradientUnits="userSpaceOnUse">
<stop stop-color="#A63A50"/>
<stop offset="0.318" stop-color="#B0545F"/>
<stop offset="0.663" stop-color="#ED929A"/>
<stop offset="1" stop-color="#84A59D"/>
</linearGradient>
</defs>
</svg>
