<svg width="241" height="215" viewBox="0 0 241 215" fill="none" xmlns="http://www.w3.org/2000/svg">
<path d="M96.29 28.5961L114.784 45.1784C115.094 45.4568 115.461 45.5824 115.821 45.5824C116.603 45.5824 117.347 44.9917 117.401 44.0885L118.852 19.1812C119.323 11.0666 112.822 4.80242 105.445 4.80242C103.758 4.80242 102.031 5.12833 100.327 5.83454C100.175 5.89905 100.024 5.96018 99.8724 6.02469C90.8188 9.87487 88.9468 22.0128 96.29 28.5995V28.5961ZM95.9331 16.8588C96.4651 13.6232 98.4718 11.0394 101.445 9.77643C101.583 9.71531 101.724 9.65759 101.866 9.59987C103.027 9.11775 104.233 8.87329 105.448 8.87329C108.007 8.87329 110.505 9.97335 112.3 11.895C114.077 13.7964 114.973 16.2986 114.821 18.9401L113.67 38.7241L98.9802 25.554C96.5425 23.3675 95.4045 20.1183 95.9399 16.8622L95.9331 16.8588Z" fill="url(#paint0_linear_290_1332)"/>
<path d="M150.11 32.229L133.666 50.879C132.794 51.8704 133.437 53.4389 134.75 53.5136L159.45 54.9769C159.726 54.9939 160.002 55.0007 160.275 55.0007C169.726 55.0007 176.345 45.2734 172.685 36.2964C172.625 36.1437 172.561 35.9909 172.497 35.8381C170.271 30.5212 165.261 27.659 160.174 27.659C156.524 27.659 152.837 29.1292 150.11 32.2256V32.229ZM160.174 31.7367C163.18 31.7367 167.019 33.2306 168.773 37.4237C168.833 37.5663 168.891 37.7055 168.948 37.8481C170.16 40.8155 169.837 44.0444 168.066 46.7096C166.285 49.3919 163.446 50.9265 160.275 50.9265C160.079 50.9265 159.884 50.9197 159.689 50.9095L140.07 49.7483L153.13 34.935C154.948 32.8741 157.45 31.7367 160.174 31.7367Z" fill="url(#paint1_linear_290_1332)"/>
<path d="M125.397 44.0851C125.451 44.9917 126.195 45.579 126.976 45.579C127.336 45.579 127.703 45.4534 128.013 45.175L146.507 28.5927C153.851 22.0094 151.979 9.87147 142.925 6.01789C142.774 5.95339 142.622 5.8889 142.471 5.82778C140.767 5.12158 139.036 4.79562 137.353 4.79562C129.979 4.79562 123.474 11.0598 123.946 19.1744L125.397 44.0817V44.0851ZM130.501 11.8916C132.296 9.97334 134.794 8.86989 137.353 8.86989C138.565 8.86989 139.77 9.11435 140.935 9.59647C141.077 9.65419 141.215 9.71191 141.356 9.77303C144.329 11.036 146.336 13.6198 146.868 16.8555C147.403 20.1115 146.265 23.3607 143.827 25.5472L129.138 38.7173L127.986 18.9333C127.831 16.2918 128.727 13.793 130.508 11.8882L130.501 11.8916Z" fill="url(#paint2_linear_290_1332)"/>
<path d="M82.5227 55.0041C82.7954 55.0041 83.0681 54.9973 83.3476 54.9803L108.047 53.517C109.357 53.4389 110.003 51.8703 109.131 50.8823L92.6874 32.2324C89.9602 29.1393 86.2734 27.6658 82.6237 27.6658C77.5363 27.6658 72.5263 30.528 70.3008 35.8449C70.2368 35.9977 70.1728 36.1505 70.1122 36.3032C66.449 45.2802 73.0684 55.0075 82.5227 55.0075V55.0041ZM73.8495 37.8481C73.9067 37.7055 73.964 37.5663 74.0246 37.4237C75.7787 33.2306 79.617 31.7367 82.6237 31.7367C85.3475 31.7367 87.8491 32.8707 89.6673 34.935L102.728 49.7483L83.1085 50.9095C82.9132 50.9197 82.7146 50.9265 82.5227 50.9265C79.351 50.9265 76.5127 49.3885 74.7316 46.7062C72.9606 44.041 72.6408 40.8121 73.8495 37.8447V37.8481Z" fill="url(#paint3_linear_290_1332)"/>
<path d="M146.507 86.5001L128.013 69.9178C127.703 69.6394 127.336 69.5138 126.976 69.5138C126.195 69.5138 125.451 70.1045 125.397 71.0077L123.946 95.915C123.474 104.03 129.976 110.294 137.353 110.294C139.04 110.294 140.767 109.968 142.471 109.262C142.622 109.197 142.774 109.136 142.925 109.072C151.979 105.221 153.851 93.0834 146.507 86.4967V86.5001ZM146.864 98.2374C146.332 101.473 144.326 104.057 141.356 105.32C141.215 105.381 141.073 105.439 140.932 105.496C139.77 105.978 138.565 106.223 137.349 106.223C134.791 106.223 132.292 105.123 130.498 103.201C128.72 101.3 127.824 98.7976 127.976 96.1561L129.127 76.3721L143.817 89.5422C146.255 91.7287 147.393 94.978 146.858 98.234L146.864 98.2374Z" fill="url(#paint4_linear_290_1332)"/>
<path d="M160.275 60.0925C160.002 60.0925 159.729 60.0993 159.45 60.1162L134.75 61.5795C133.44 61.6576 132.794 63.2262 133.666 64.2142L150.11 82.8642C152.837 85.9573 156.524 87.4308 160.174 87.4308C165.261 87.4308 170.271 84.5686 172.497 79.2517C172.561 79.0989 172.625 78.9461 172.685 78.7934C176.348 69.8164 169.729 60.0891 160.275 60.0891V60.0925ZM168.948 77.2485C168.891 77.3911 168.833 77.5303 168.773 77.6729C167.019 81.866 163.18 83.3599 160.174 83.3599C157.45 83.3599 154.948 82.2225 153.13 80.1616L140.07 65.3482L159.689 64.1871C159.884 64.1769 160.083 64.1701 160.275 64.1701C163.446 64.1701 166.285 65.7081 168.066 68.387C169.837 71.0522 170.157 74.2811 168.948 77.2485Z" fill="url(#paint5_linear_290_1332)"/>
<path d="M117.4 71.0112C117.347 70.1047 116.602 69.5173 115.821 69.5173C115.461 69.5173 115.094 69.6429 114.784 69.9213L96.2899 86.5036C88.9467 93.0869 90.8187 105.225 99.8723 109.078C100.024 109.143 100.175 109.207 100.327 109.269C102.03 109.975 103.761 110.301 105.445 110.301C112.818 110.301 119.323 104.037 118.852 95.922L117.4 71.0146V71.0112ZM112.296 103.205C110.502 105.123 108.003 106.226 105.445 106.226C104.232 106.226 103.027 105.982 101.862 105.5C101.721 105.442 101.579 105.381 101.441 105.323C98.4683 104.06 96.4616 101.477 95.9296 98.2409C95.3977 94.9849 96.5323 91.7356 98.97 89.5491L113.66 76.379L114.811 96.163C114.966 98.8045 114.071 101.303 112.289 103.208L112.296 103.205Z" fill="url(#paint6_linear_290_1332)"/>
<path d="M92.6873 82.8678L109.131 64.2178C110.003 63.2264 109.36 61.6578 108.047 61.5831L83.3475 60.1199C83.0714 60.1029 82.7953 60.0961 82.5226 60.0961C73.0716 60.0961 66.4523 69.8234 70.1121 78.8004C70.1761 78.9532 70.2367 79.1059 70.3007 79.2587C72.5262 84.5756 77.5362 87.4378 82.6236 87.4378C86.2733 87.4378 89.9601 85.9677 92.6873 82.8712V82.8678ZM82.6236 83.3601C79.6169 83.3601 75.7786 81.8662 74.0245 77.6731C73.9639 77.5305 73.9066 77.3913 73.8494 77.2487C72.6373 74.2813 72.9605 71.0524 74.7315 68.3872C76.5126 65.705 79.3509 64.1703 82.5226 64.1703C82.7178 64.1703 82.9131 64.1772 83.1084 64.1873L102.727 65.3485L89.6672 80.1619C87.849 82.2228 85.3474 83.3601 82.6236 83.3601Z" fill="url(#paint7_linear_290_1332)"/>
<path d="M121.397 62.8494C124.3 62.8494 126.653 60.4766 126.653 57.5495C126.653 54.6224 124.3 52.2495 121.397 52.2495C118.494 52.2495 116.141 54.6224 116.141 57.5495C116.141 60.4766 118.494 62.8494 121.397 62.8494Z" fill="url(#paint8_linear_290_1332)"/>
<path d="M20.462 134.47H4.718C4.41933 134.001 4.142 133.361 3.886 132.55C3.63 131.74 3.502 130.886 3.502 129.99C3.502 128.326 3.86467 127.132 4.59 126.406C5.358 125.681 6.33933 125.318 7.534 125.318H31.406C33.2833 126.854 34.222 128.902 34.222 131.462C34.222 132.529 33.966 133.596 33.454 134.662C32.9847 135.686 32.366 136.668 31.598 137.606L17.07 155.142H33.454C33.7527 155.612 34.03 156.252 34.286 157.062C34.542 157.873 34.67 158.726 34.67 159.622C34.67 161.286 34.286 162.481 33.518 163.206C32.7927 163.932 31.8327 164.294 30.638 164.294H5.422C4.69667 163.697 4.09933 162.886 3.63 161.862C3.16067 160.838 2.926 159.665 2.926 158.342C2.926 157.276 3.20333 156.188 3.758 155.078C4.31267 153.969 4.974 152.945 5.742 152.006L20.462 134.47ZM49.291 126.662C50.0163 126.236 51.1043 125.83 52.555 125.446C54.0483 125.062 55.5417 124.87 57.035 124.87C59.1683 124.87 61.0457 125.19 62.667 125.83C64.331 126.428 65.3977 127.388 65.867 128.71C66.635 130.929 67.467 133.51 68.363 136.454C69.259 139.398 70.155 142.449 71.051 145.606C71.947 148.721 72.8217 151.814 73.675 154.886C74.5283 157.916 75.275 160.604 75.915 162.95C75.403 163.548 74.635 164.017 73.611 164.358C72.587 164.742 71.371 164.934 69.963 164.934C68.939 164.934 68.0643 164.849 67.339 164.678C66.6563 164.508 66.0803 164.252 65.611 163.91C65.1843 163.569 64.8217 163.121 64.523 162.566C64.267 162.012 64.0323 161.372 63.819 160.646L62.667 156.23H51.083C50.7417 157.51 50.4003 158.833 50.059 160.198C49.7177 161.564 49.3763 162.886 49.035 164.166C48.4377 164.38 47.7977 164.55 47.115 164.678C46.475 164.849 45.6857 164.934 44.747 164.934C42.571 164.934 40.9497 164.572 39.883 163.846C38.859 163.078 38.347 162.033 38.347 160.71C38.347 160.113 38.4323 159.516 38.603 158.918C38.7737 158.321 38.9657 157.617 39.179 156.806C39.4777 155.654 39.883 154.225 40.395 152.518C40.9497 150.812 41.547 148.977 42.187 147.014C42.827 145.009 43.5097 142.961 44.235 140.87C44.9603 138.78 45.643 136.817 46.283 134.982C46.923 133.105 47.499 131.441 48.011 129.99C48.5657 128.54 48.9923 127.43 49.291 126.662ZM56.971 134.918C56.3737 136.71 55.691 138.716 54.923 140.934C54.1977 143.11 53.5363 145.329 52.939 147.59H60.875C60.2777 145.286 59.659 143.046 59.019 140.87C58.4217 138.652 57.867 136.668 57.355 134.918H56.971ZM115.848 164.038C115.379 164.166 114.632 164.294 113.608 164.422C112.627 164.55 111.645 164.614 110.664 164.614C109.683 164.614 108.808 164.529 108.04 164.358C107.315 164.23 106.696 163.974 106.184 163.59C105.672 163.206 105.288 162.673 105.032 161.99C104.776 161.308 104.648 160.412 104.648 159.302V149.318H92.36V164.038C91.8907 164.166 91.144 164.294 90.12 164.422C89.1387 164.55 88.1573 164.614 87.176 164.614C86.1947 164.614 85.32 164.529 84.552 164.358C83.8267 164.23 83.208 163.974 82.696 163.59C82.184 163.206 81.8 162.673 81.544 161.99C81.288 161.308 81.16 160.412 81.16 159.302V125.51C81.6293 125.425 82.376 125.318 83.4 125.19C84.424 125.02 85.4053 124.934 86.344 124.934C87.3253 124.934 88.1787 125.02 88.904 125.19C89.672 125.318 90.312 125.574 90.824 125.958C91.336 126.342 91.72 126.876 91.976 127.558C92.232 128.241 92.36 129.137 92.36 130.246V140.486H104.648V125.51C105.117 125.425 105.864 125.318 106.888 125.19C107.912 125.02 108.893 124.934 109.832 124.934C110.813 124.934 111.667 125.02 112.392 125.19C113.16 125.318 113.8 125.574 114.312 125.958C114.824 126.342 115.208 126.876 115.464 127.558C115.72 128.241 115.848 129.137 115.848 130.246V164.038ZM135.296 151.75V164.038C134.827 164.166 134.08 164.294 133.056 164.422C132.075 164.55 131.093 164.614 130.112 164.614C129.131 164.614 128.256 164.529 127.488 164.358C126.763 164.23 126.144 163.974 125.632 163.59C125.163 163.206 124.8 162.673 124.544 161.99C124.288 161.308 124.16 160.412 124.16 159.302V129.158C124.16 128.262 124.395 127.58 124.864 127.11C125.376 126.598 126.059 126.193 126.912 125.894C128.363 125.382 130.048 125.02 131.968 124.806C133.888 124.55 135.936 124.422 138.112 124.422C144 124.422 148.437 125.66 151.424 128.134C154.411 130.609 155.904 133.958 155.904 138.182C155.904 140.828 155.221 143.089 153.856 144.966C152.491 146.844 150.869 148.294 148.992 149.318C150.528 151.409 152.043 153.372 153.536 155.206C155.029 157.041 156.203 158.705 157.056 160.198C156.629 161.692 155.84 162.844 154.688 163.654C153.579 164.422 152.32 164.806 150.912 164.806C149.973 164.806 149.163 164.7 148.48 164.486C147.797 164.273 147.2 163.974 146.688 163.59C146.176 163.206 145.707 162.737 145.28 162.182C144.853 161.628 144.448 161.03 144.064 160.39L138.688 151.75H135.296ZM139.328 143.238C140.949 143.238 142.229 142.833 143.168 142.022C144.107 141.169 144.576 139.932 144.576 138.31C144.576 136.689 144.043 135.473 142.976 134.662C141.952 133.809 140.309 133.382 138.048 133.382C137.408 133.382 136.896 133.404 136.512 133.446C136.128 133.489 135.701 133.553 135.232 133.638V143.238H139.328ZM171.916 126.662C172.641 126.236 173.729 125.83 175.18 125.446C176.673 125.062 178.167 124.87 179.66 124.87C181.793 124.87 183.671 125.19 185.292 125.83C186.956 126.428 188.023 127.388 188.492 128.71C189.26 130.929 190.092 133.51 190.988 136.454C191.884 139.398 192.78 142.449 193.676 145.606C194.572 148.721 195.447 151.814 196.3 154.886C197.153 157.916 197.9 160.604 198.54 162.95C198.028 163.548 197.26 164.017 196.236 164.358C195.212 164.742 193.996 164.934 192.588 164.934C191.564 164.934 190.689 164.849 189.964 164.678C189.281 164.508 188.705 164.252 188.236 163.91C187.809 163.569 187.447 163.121 187.148 162.566C186.892 162.012 186.657 161.372 186.444 160.646L185.292 156.23H173.708C173.367 157.51 173.025 158.833 172.684 160.198C172.343 161.564 172.001 162.886 171.66 164.166C171.063 164.38 170.423 164.55 169.74 164.678C169.1 164.849 168.311 164.934 167.372 164.934C165.196 164.934 163.575 164.572 162.508 163.846C161.484 163.078 160.972 162.033 160.972 160.71C160.972 160.113 161.057 159.516 161.228 158.918C161.399 158.321 161.591 157.617 161.804 156.806C162.103 155.654 162.508 154.225 163.02 152.518C163.575 150.812 164.172 148.977 164.812 147.014C165.452 145.009 166.135 142.961 166.86 140.87C167.585 138.78 168.268 136.817 168.908 134.982C169.548 133.105 170.124 131.441 170.636 129.99C171.191 128.54 171.617 127.43 171.916 126.662ZM179.596 134.918C178.999 136.71 178.316 138.716 177.548 140.934C176.823 143.11 176.161 145.329 175.564 147.59H183.5C182.903 145.286 182.284 143.046 181.644 140.87C181.047 138.652 180.492 136.668 179.98 134.918H179.596ZM213.291 126.662C214.016 126.236 215.104 125.83 216.555 125.446C218.048 125.062 219.542 124.87 221.035 124.87C223.168 124.87 225.046 125.19 226.667 125.83C228.331 126.428 229.398 127.388 229.867 128.71C230.635 130.929 231.467 133.51 232.363 136.454C233.259 139.398 234.155 142.449 235.051 145.606C235.947 148.721 236.822 151.814 237.675 154.886C238.528 157.916 239.275 160.604 239.915 162.95C239.403 163.548 238.635 164.017 237.611 164.358C236.587 164.742 235.371 164.934 233.963 164.934C232.939 164.934 232.064 164.849 231.339 164.678C230.656 164.508 230.08 164.252 229.611 163.91C229.184 163.569 228.822 163.121 228.523 162.566C228.267 162.012 228.032 161.372 227.819 160.646L226.667 156.23H215.083C214.742 157.51 214.4 158.833 214.059 160.198C213.718 161.564 213.376 162.886 213.035 164.166C212.438 164.38 211.798 164.55 211.115 164.678C210.475 164.849 209.686 164.934 208.747 164.934C206.571 164.934 204.95 164.572 203.883 163.846C202.859 163.078 202.347 162.033 202.347 160.71C202.347 160.113 202.432 159.516 202.603 158.918C202.774 158.321 202.966 157.617 203.179 156.806C203.478 155.654 203.883 154.225 204.395 152.518C204.95 150.812 205.547 148.977 206.187 147.014C206.827 145.009 207.51 142.961 208.235 140.87C208.96 138.78 209.643 136.817 210.283 134.982C210.923 133.105 211.499 131.441 212.011 129.99C212.566 128.54 212.992 127.43 213.291 126.662ZM220.971 134.918C220.374 136.71 219.691 138.716 218.923 140.934C218.198 143.11 217.536 145.329 216.939 147.59H224.875C224.278 145.286 223.659 143.046 223.019 140.87C222.422 138.652 221.867 136.668 221.355 134.918H220.971Z" fill="#2B2626"/>
<path d="M3.24007 189.007L8.28007 177.807H10.3281L15.3841 189.007H13.2081L8.87207 178.911H9.70407L5.38407 189.007H3.24007ZM5.56007 186.415L6.12007 184.783H12.1681L12.7281 186.415H5.56007ZM47.1162 189.167C46.2629 189.167 45.4682 189.029 44.7322 188.751C44.0069 188.463 43.3722 188.063 42.8282 187.551C42.2949 187.029 41.8789 186.415 41.5802 185.711C41.2815 185.007 41.1322 184.239 41.1322 183.407C41.1322 182.575 41.2815 181.807 41.5802 181.103C41.8789 180.399 42.3002 179.791 42.8442 179.279C43.3882 178.757 44.0229 178.357 44.7482 178.079C45.4735 177.791 46.2682 177.647 47.1322 177.647C48.0495 177.647 48.8869 177.807 49.6442 178.127C50.4015 178.437 51.0415 178.901 51.5642 179.519L50.2202 180.783C49.8149 180.346 49.3615 180.021 48.8602 179.807C48.3589 179.583 47.8149 179.471 47.2282 179.471C46.6415 179.471 46.1029 179.567 45.6122 179.759C45.1322 179.951 44.7109 180.223 44.3482 180.575C43.9962 180.927 43.7189 181.343 43.5162 181.823C43.3242 182.303 43.2282 182.831 43.2282 183.407C43.2282 183.983 43.3242 184.511 43.5162 184.991C43.7189 185.471 43.9962 185.887 44.3482 186.239C44.7109 186.591 45.1322 186.863 45.6122 187.055C46.1029 187.247 46.6415 187.343 47.2282 187.343C47.8149 187.343 48.3589 187.237 48.8602 187.023C49.3615 186.799 49.8149 186.463 50.2202 186.015L51.5642 187.295C51.0415 187.903 50.4015 188.367 49.6442 188.687C48.8869 189.007 48.0442 189.167 47.1162 189.167ZM77.0188 189.007L82.0588 177.807H84.1068L89.1628 189.007H86.9868L82.6508 178.911H83.4828L79.1628 189.007H77.0188ZM79.3388 186.415L79.8988 184.783H85.9468L86.5068 186.415H79.3388ZM115.867 189.007V177.807H120.763C121.979 177.807 123.046 178.042 123.963 178.511C124.881 178.981 125.595 179.631 126.107 180.463C126.619 181.295 126.875 182.277 126.875 183.407C126.875 184.527 126.619 185.509 126.107 186.351C125.595 187.183 124.881 187.834 123.963 188.303C123.046 188.773 121.979 189.007 120.763 189.007H115.867ZM117.947 187.247H120.667C121.51 187.247 122.235 187.087 122.843 186.767C123.462 186.447 123.937 185.999 124.267 185.423C124.609 184.847 124.779 184.175 124.779 183.407C124.779 182.629 124.609 181.957 124.267 181.391C123.937 180.815 123.462 180.367 122.843 180.047C122.235 179.727 121.51 179.567 120.667 179.567H117.947V187.247ZM156.286 182.463H161.854V184.175H156.286V182.463ZM156.446 187.263H162.766V189.007H154.366V177.807H162.542V179.551H156.446V187.263ZM190.365 189.007V177.807H192.077L196.973 185.983H196.077L200.893 177.807H202.605L202.621 189.007H200.653L200.637 180.895H201.053L196.957 187.727H196.029L191.869 180.895H192.349V189.007H190.365ZM233.678 189.007V184.575L234.142 185.855L229.278 177.807H231.502L235.406 184.287H234.158L238.094 177.807H240.142L235.278 185.855L235.758 184.575V189.007H233.678Z" fill="url(#paint9_linear_290_1332)"/>
<defs>
<linearGradient id="paint0_linear_290_1332" x1="121.399" y1="-33.5275" x2="121.399" y2="129.607" gradientUnits="userSpaceOnUse">
<stop stop-color="#A63A50"/>
<stop offset="0.318" stop-color="#B0545F"/>
<stop offset="0.663" stop-color="#ED929A"/>
<stop offset="1" stop-color="#84A59D"/>
</linearGradient>
<linearGradient id="paint1_linear_290_1332" x1="121.399" y1="-33.5275" x2="121.399" y2="129.607" gradientUnits="userSpaceOnUse">
<stop stop-color="#A63A50"/>
<stop offset="0.318" stop-color="#B0545F"/>
<stop offset="0.663" stop-color="#ED929A"/>
<stop offset="1" stop-color="#84A59D"/>
</linearGradient>
<linearGradient id="paint2_linear_290_1332" x1="121.399" y1="-33.5275" x2="121.399" y2="129.607" gradientUnits="userSpaceOnUse">
<stop stop-color="#A63A50"/>
<stop offset="0.318" stop-color="#B0545F"/>
<stop offset="0.663" stop-color="#ED929A"/>
<stop offset="1" stop-color="#84A59D"/>
</linearGradient>
<linearGradient id="paint3_linear_290_1332" x1="121.399" y1="-33.5275" x2="121.399" y2="129.607" gradientUnits="userSpaceOnUse">
<stop stop-color="#A63A50"/>
<stop offset="0.318" stop-color="#B0545F"/>
<stop offset="0.663" stop-color="#ED929A"/>
<stop offset="1" stop-color="#84A59D"/>
</linearGradient>
<linearGradient id="paint4_linear_290_1332" x1="121.399" y1="-33.5275" x2="121.399" y2="129.607" gradientUnits="userSpaceOnUse">
<stop stop-color="#A63A50"/>
<stop offset="0.318" stop-color="#B0545F"/>
<stop offset="0.663" stop-color="#ED929A"/>
<stop offset="1" stop-color="#84A59D"/>
</linearGradient>
<linearGradient id="paint5_linear_290_1332" x1="121.399" y1="-33.5275" x2="121.399" y2="129.607" gradientUnits="userSpaceOnUse">
<stop stop-color="#A63A50"/>
<stop offset="0.318" stop-color="#B0545F"/>
<stop offset="0.663" stop-color="#ED929A"/>
<stop offset="1" stop-color="#84A59D"/>
</linearGradient>
<linearGradient id="paint6_linear_290_1332" x1="121.399" y1="-33.5275" x2="121.399" y2="129.607" gradientUnits="userSpaceOnUse">
<stop stop-color="#A63A50"/>
<stop offset="0.318" stop-color="#B0545F"/>
<stop offset="0.663" stop-color="#ED929A"/>
<stop offset="1" stop-color="#84A59D"/>
</linearGradient>
<linearGradient id="paint7_linear_290_1332" x1="121.399" y1="-33.5275" x2="121.399" y2="129.607" gradientUnits="userSpaceOnUse">
<stop stop-color="#A63A50"/>
<stop offset="0.318" stop-color="#B0545F"/>
<stop offset="0.663" stop-color="#ED929A"/>
<stop offset="1" stop-color="#84A59D"/>
</linearGradient>
<linearGradient id="paint8_linear_290_1332" x1="121.399" y1="-33.5275" x2="121.399" y2="129.607" gradientUnits="userSpaceOnUse">
<stop stop-color="#A63A50"/>
<stop offset="0.318" stop-color="#B0545F"/>
<stop offset="0.663" stop-color="#ED929A"/>
<stop offset="1" stop-color="#84A59D"/>
</linearGradient>
<linearGradient id="paint9_linear_290_1332" x1="22.8162" y1="188.87" x2="256.277" y2="192.708" gradientUnits="userSpaceOnUse">
<stop stop-color="#A63A50"/>
<stop offset="0.318" stop-color="#B0545F"/>
<stop offset="0.663" stop-color="#ED929A"/>
<stop offset="1" stop-color="#84A59D"/>
</linearGradient>
</defs>
</svg>
