<svg width="27" height="27" viewBox="0 0 27 27" fill="none" xmlns="http://www.w3.org/2000/svg">
<path d="M13.5 0C6.04378 0 0 6.04378 0 13.5C0 20.9562 6.04378 27 13.5 27C20.9554 27 27 20.9554 27 13.5C27 6.04462 20.9562 0 13.5 0ZM13.5067 20.2534C12.2558 20.2528 11.0235 19.9497 9.91491 19.37L5.70628 21.2853L6.88416 16.5721C6.1162 15.3337 5.70834 13.9059 5.70628 12.4487C5.70628 8.14894 9.19434 4.65834 13.5076 4.65834C17.8048 4.65834 21.2937 8.14894 21.2937 12.4487C21.2929 16.7628 17.8048 20.2534 13.5067 20.2534Z" fill="#A63A50"/>
<path d="M13.5072 6.21948C10.0622 6.21948 7.266 9.00302 7.266 12.4489C7.26426 13.9468 7.80257 15.3952 8.78221 16.5284L7.92834 18.6935L9.82762 17.4861C10.8912 18.276 12.1824 18.6997 13.5072 18.6935C16.9514 18.6935 19.7332 15.8956 19.7332 12.4497C19.7345 11.6316 19.5743 10.8212 19.2619 10.0651C18.9495 9.30889 18.491 8.62177 17.9127 8.04305C17.3343 7.46433 16.6475 7.00537 15.8916 6.69246C15.1356 6.37954 14.3254 6.21882 13.5072 6.21948ZM17.4526 15.0544C17.3935 15.3632 16.6578 16.0264 16.0832 16.1589C14.8471 16.4381 13.0955 15.4518 11.9615 14.4072C10.8275 13.377 9.69515 11.7123 9.85715 10.4602C9.93056 9.88558 10.5338 9.09077 10.8283 8.98783C10.9608 8.9583 11.1515 8.9583 11.3287 8.9583C11.5345 8.97264 11.7117 8.98783 11.7708 9.10511L12.4331 10.828C12.477 10.9605 12.3741 11.1073 12.2416 11.2702C12.0509 11.4912 12.0214 11.5056 11.8442 11.7418C11.7564 11.8591 11.8147 12.0068 11.8442 12.065C12.0357 12.5215 12.477 13.037 12.8744 13.4049C13.287 13.7736 13.8304 14.171 14.302 14.3321C14.3316 14.3321 14.5079 14.4055 14.6404 14.376C14.7577 14.3617 14.8311 14.2731 14.934 14.1406C15.1247 13.9052 15.1989 13.8166 15.3609 13.5955C15.4934 13.4335 15.625 13.3745 15.7592 13.4479L17.2602 14.1406C17.3783 14.1997 17.4222 14.3465 17.4366 14.5532C17.4669 14.7312 17.4821 14.9228 17.4526 15.0544Z" fill="#A63A50"/>
</svg>
